<svg width="63" height="48" fill="none" xmlns="http://www.w3.org/2000/svg"><path d="M31.47 38.238h-4.36l-13.579.016c-.323 0-.647.006-.97 0-.15-.005-.2.049-.2.206.012 1.987.087 3.981.006 5.964-.075 1.745-1.148 3.02-2.899 3.441-1.342.324-2.603.097-3.691-.805-.803-.665-1.25-1.545-1.277-2.577-.049-1.96-.033-3.922-.027-5.889 0-.27-.054-.361-.334-.34a4.63 4.63 0 01-1.364-.092c-.916-.216-1.573-1.053-1.595-1.993-.021-.827.226-1.518.91-2.015.168-.125.357-.222.556-.265.2-.043.22-.146.22-.319-.005-2.323.012-4.646-.01-6.969-.01-1.118.323-2.14.76-3.139.894-2.047 2.155-3.846 3.74-5.418a7.1 7.1 0 011.067-.902c.183-.125.156-.211.021-.346-.248-.26-.49-.53-.722-.8-.086-.097-.178-.124-.307-.124-2.048.006-4.096.006-6.143.006C.415 15.872 0 15.462 0 14.592V13.16c.005-.697.431-1.129 1.12-1.134h6.548c.62 0 1.067.41 1.089 1.026.016.524.01 1.043.005 1.567a.58.58 0 00.183.454c.313.318.615.653.911.988.086.098.15.12.27.076.538-.2.522-.195.576-.784.14-1.572.323-3.138.566-4.7.178-1.134.372-2.263.668-3.376a8.566 8.566 0 011.848-3.447C15.401 1.983 17.47.902 19.831.335 20.93.075 22.05 0 23.188 0c5.685.005 11.37-.005 17.055.005 2.856.006 5.46.827 7.712 2.62 1.692 1.346 2.786 3.09 3.254 5.22.372 1.701.63 3.419.836 5.148.102.87.21 1.745.264 2.62.01.21.086.346.318.448.312.135.495.076.695-.178.242-.303.512-.578.781-.854.113-.113.135-.248.135-.394 0-.551-.005-1.097.016-1.648.022-.518.464-.95.986-.95 2.247-.006 4.489-.011 6.736-.006.587 0 1.002.438 1.024 1.064.016.578.016 1.151 0 1.73-.022.658-.496 1.047-1.245 1.047-2.047 0-4.095 0-6.143-.005a.447.447 0 00-.388.178c-.226.27-.469.524-.706.778-.108.113-.124.178.022.292 2.317 1.826 3.955 4.16 5.054 6.882.361.886.555 1.805.545 2.777-.027 2.258-.006 4.522-.011 6.78 0 .184.038.276.231.335 1.326.41 1.725 1.945 1.288 2.993-.404.983-1.174 1.34-2.166 1.356-.232.005-.469.027-.7.016-.2-.01-.26.049-.26.254.012.962.012 1.929.006 2.89-.005 1.016.006 2.037-.021 3.053-.054 1.642-1.31 3.1-2.92 3.43-1.37.281-2.625.065-3.708-.853-.825-.703-1.234-1.632-1.245-2.702a295.446 295.446 0 01-.006-5.78c0-.249-.08-.292-.307-.292-6.278.006-12.556.006-18.828.006-.022-.011-.022-.017-.022-.022zm.027-35.315c0 .005 0 .005 0 0-2.829.005-5.658.005-8.487 0-1.79 0-3.487.362-5.055 1.242-1.632.919-2.802 2.22-3.26 4.079-.356 1.448-.587 2.917-.781 4.392-.183 1.416-.286 2.836-.415 4.257-.016.151-.054.303.22.303 2.587-.011 5.174-.006 7.76-.006.108 0 .21-.016.308-.07.889-.486 1.778-.967 2.667-1.453 2.323-1.259 4.65-2.512 6.973-3.782.264-.146.453-.13.706.006 3.196 1.74 6.397 3.468 9.592 5.202a.687.687 0 00.329.097c2.398-.005 4.796-.005 7.194.006.237 0 .264-.092.248-.281-.076-.886-.135-1.772-.232-2.653-.205-1.918-.474-3.825-.89-5.71-.355-1.61-1.174-2.907-2.5-3.857-1.708-1.227-3.642-1.767-5.728-1.772-2.888-.006-5.771 0-8.649 0zM13.353 28.438c2.053.022 3.891-1.572 3.891-3.895 0-2.28-1.794-3.884-3.95-3.906-2.064-.022-3.912 1.799-3.831 4.041.07 2.107 1.805 3.787 3.89 3.76zm36.261 0c2.075.054 3.988-1.69 3.913-4.035a3.877 3.877 0 00-3.87-3.755c-2.128 0-3.939 1.653-3.912 3.9.027 2.361 1.886 3.9 3.87 3.89zm-17.362-3.387c0 2.82 0 5.635-.006 8.454 0 .217.049.276.264.27.62-.016 1.24-.016 1.86 0 .22.006.264-.07.264-.275-.006-2.01-.006-4.014-.006-6.023 0-3.215 0-6.43.006-9.644 0-.21-.065-.318-.248-.416a79.447 79.447 0 01-1.892-1.02c-.183-.103-.248-.109-.248.145.011 2.842.006 5.672.006 8.509zm-1.515-8.471c-.743.4-1.438.783-2.144 1.15-.173.092-.237.19-.237.39.01 1.869.005 3.738.005 5.607 0 3.258 0 6.515-.005 9.773 0 .21.043.276.264.27a28.744 28.744 0 011.805 0c.275.011.318-.086.318-.335-.005-5.505-.005-11.015-.005-16.52v-.335zm5.438 9.53c0 2.463.005 4.932-.006 7.395 0 .217.06.276.27.27a32.54 32.54 0 011.778 0c.27.011.356-.048.356-.345-.011-4.479-.011-8.963 0-13.441 0-.233-.076-.351-.275-.454-.62-.319-1.234-.66-1.848-.989-.275-.145-.275-.15-.275.168v7.396zm-9.355-7.412c-.728.394-1.412.777-2.113 1.134-.215.108-.285.227-.285.47.01 4.37.005 8.747.005 13.117 0 .054.006.108 0 .162-.016.14.033.19.178.19a126.04 126.04 0 012.02 0c.163 0 .2-.06.195-.206-.006-.486-.006-.972-.006-1.459.011-2.723-.005-5.45.011-8.174.006-1.296 0-2.587-.01-3.884 0-.437.005-.875.005-1.35zm13.294 1.831c-.005.086-.01.13-.01.178v6.72c0 2.027.005 4.053-.006 6.073 0 .21.054.276.27.27.63-.016 1.255-.01 1.885 0 .194.006.237-.065.237-.243-.01-.956-.005-1.907-.005-2.863 0-2.972 0-5.937.005-8.909 0-.194-.043-.286-.248-.259-.242.032-.447-.054-.657-.173-.474-.27-.96-.518-1.471-.794zm-17.25.351c-.08-.016-.14.038-.199.07-.609.39-1.245.665-1.994.551-.215-.032-.161.136-.161.254 0 3.917 0 7.828-.006 11.745 0 .232.076.281.291.276a33.536 33.536 0 011.805 0c.238.005.302-.054.302-.298-.01-4.1-.005-8.206-.005-12.306-.01-.097.016-.2-.032-.292z" fill="#DF5151"/></svg>