<svg width="109" height="38" fill="none" xmlns="http://www.w3.org/2000/svg"><g clip-path="url(#clip0)"><path d="M1.742 35.034V37.2c0 .103.026.18.078.232a.51.51 0 00.234.129v.155H0v-.155c.104-.026.208-.078.234-.13.052-.05.078-.128.078-.231v-5.52c0-.103-.026-.18-.078-.232a.504.504 0 00-.234-.13v-.154h4.107c.494 0 .91.026 1.196.077.286.052.546.155.78.31.26.155.442.387.572.67.13.285.182.568.182.878 0 1.058-.598 1.677-1.794 1.883l1.274 1.806c.234.31.39.516.494.62.104.102.234.128.39.154v.155H4.809v-.155c.156-.026.234-.078.234-.18 0-.052-.078-.207-.234-.413l-1.326-1.935H1.742zm0-1.084h2.21c.337 0 .571 0 .701-.026.13-.025.26-.051.364-.129.234-.129.364-.36.364-.696 0-.335-.13-.568-.364-.697a1.51 1.51 0 00-.364-.129c-.13-.025-.364-.025-.702-.025h-2.21v1.702zm11.438.877v1.78h4.237c.104 0 .182-.026.234-.077a.498.498 0 00.13-.232h.156v1.676h-.156c-.026-.103-.078-.206-.13-.232-.052-.051-.13-.077-.234-.077h-5.979v-.155c.104-.026.208-.077.234-.129.052-.051.078-.129.078-.232v-5.52c0-.104-.026-.181-.078-.233a.504.504 0 00-.234-.129v-.155h5.875c.104 0 .182-.025.234-.077a.498.498 0 00.13-.232h.156v1.677h-.156a.498.498 0 00-.13-.233c-.052-.051-.13-.077-.234-.077H13.18v1.548h2.677c.104 0 .182-.026.234-.078a.498.498 0 00.13-.232h.156v1.651h-.156a.498.498 0 00-.13-.232c-.052-.051-.13-.077-.234-.077H13.18v.077zm12.686-2.579V37.2c0 .103.026.18.078.232.052.052.13.103.234.129v.155h-2.054v-.155c.104-.026.208-.077.234-.129.052-.052.078-.129.078-.232v-4.953h-2.054c-.104 0-.182.025-.234.077a.499.499 0 00-.13.232h-.156V30.88h.156c.026.13.078.207.13.233.052.051.13.077.208.077h5.511c.104 0 .182-.026.234-.077a.497.497 0 00.13-.233h.156v1.677h-.156c-.026-.129-.078-.206-.13-.232-.052-.052-.13-.077-.234-.077h-2.001zm50.899 0V37.2c0 .103.026.18.078.232.052.052.13.103.234.129v.155h-2.053v-.155c.104-.026.208-.077.234-.129.052-.052.078-.129.078-.232v-4.953h-2.054c-.104 0-.182.025-.234.077a.498.498 0 00-.13.232h-.13V30.88h.156c.026.13.078.207.13.233.052.051.13.077.208.077h5.511c.104 0 .182-.026.234-.077a.498.498 0 00.13-.233h.156v1.677h-.156c-.026-.129-.078-.206-.13-.232-.052-.052-.13-.077-.234-.077h-2.028zm-42.503 2.786V37.2c0 .103.026.18.078.232a.51.51 0 00.234.129v.155h-2.053v-.155c.104-.026.208-.078.234-.13.052-.05.078-.128.078-.231v-5.52c0-.103-.026-.18-.078-.232a.504.504 0 00-.234-.13v-.154h4.133c.494 0 .91.026 1.196.077.286.052.546.155.78.31.26.155.441.387.572.67.13.285.181.568.181.878 0 1.058-.597 1.677-1.793 1.883l1.274 1.806c.233.31.39.516.494.62.104.102.234.128.39.154v.155h-2.392v-.155c.156-.026.234-.078.234-.18 0-.052-.078-.207-.234-.413l-1.326-1.935h-1.768zm0-1.084h2.21c.338 0 .572 0 .702-.026.13-.025.26-.051.364-.129.234-.129.364-.36.364-.696 0-.335-.13-.568-.364-.697a1.512 1.512 0 00-.364-.129c-.13-.025-.364-.025-.702-.025h-2.21v1.702zm13.206-2.915c1.144 0 2.054.31 2.73.929.702.645 1.066 1.47 1.066 2.502a3.29 3.29 0 01-.52 1.755c-.676 1.057-1.768 1.599-3.276 1.599-1.144 0-2.054-.31-2.73-.929a3.506 3.506 0 01-.831-1.186 3.55 3.55 0 01-.234-1.29c0-.645.156-1.264.494-1.806.676-1.006 1.767-1.548 3.301-1.574zm0 1.11c-.624 0-1.144.18-1.56.567-.494.439-.754 1.006-.754 1.728 0 .697.26 1.29.754 1.729.416.361.936.567 1.586.567.624 0 1.17-.18 1.586-.567.26-.232.442-.49.572-.8.104-.284.182-.567.182-.877 0-.748-.26-1.316-.754-1.754-.442-.387-.988-.568-1.612-.593zm38.734 1.753S88.1 31.68 88.1 31.602c0-.129-.104-.232-.313-.258v-.155h2.262v.155c-.13.026-.234.052-.286.13-.052.05-2.755 3.508-2.755 3.508s-.052 2.27-.052 2.322c0 .154.104.258.312.283v.155h-2.132v-.155c.208-.026.312-.129.312-.284V34.93s-2.704-3.405-2.756-3.457a.589.589 0 00-.286-.129v-.155h2.34v.155c-.208.052-.312.13-.312.258-.052.078 1.768 2.296 1.768 2.296zm18.067.929v1.78h4.237c.104 0 .182-.026.234-.077a.498.498 0 00.13-.232h.156v1.676h-.156c-.026-.103-.078-.206-.13-.232-.052-.051-.13-.077-.234-.077h-5.979v-.155c.104-.026.208-.077.234-.129.052-.051.078-.129.078-.232v-5.52c0-.104-.026-.181-.078-.233a.504.504 0 00-.234-.129v-.155h5.875c.104 0 .182-.025.234-.077a.498.498 0 00.13-.232h.156v1.677h-.156a.498.498 0 00-.13-.233c-.052-.051-.13-.077-.234-.077h-4.107v1.548h2.677c.104 0 .182-.026.234-.078a.498.498 0 00.13-.232h.156v1.651h-.156a.498.498 0 00-.13-.232c-.052-.051-.13-.077-.234-.077h-2.703v.077zm-10.009 1.78h4.056c.104 0 .182-.026.234-.077a.498.498 0 00.13-.232h.156v1.676h-.156c-.026-.103-.078-.206-.13-.232-.052-.051-.13-.077-.234-.077h-5.797v-.155c.104-.026.208-.077.234-.129.052-.051.078-.129.078-.232v-5.52c0-.104-.026-.181-.078-.233a.504.504 0 00-.234-.129v-.155h2.053v.155c-.104.026-.208.078-.234.13-.052.05-.078.128-.078.231v4.98zm-25.19-4.901l-.78 1.548-.13-.078V33.1c0-.103-.103-.232-.285-.361-.572-.387-1.248-.593-2.028-.593-.338 0-.65.051-.91.128a1.09 1.09 0 00-.468.284.548.548 0 00-.182.413c0 .258.156.413.442.49.156.052.494.103.988.155l.754.077c.442.052.806.103 1.092.207.286.077.52.206.728.36.208.156.39.362.52.62s.182.516.182.826c0 .464-.156.877-.442 1.212-.26.335-.702.568-1.248.722-.416.13-.884.181-1.378.181a5.725 5.725 0 01-2.573-.62c-.182-.077-.286-.128-.312-.128-.052 0-.104.026-.208.103l-.13-.077.702-1.6.13.078v.051c0 .155.078.284.208.387.207.18.52.335.961.49.442.13.858.207 1.248.207.416 0 .78-.078 1.092-.207.156-.077.312-.18.39-.31a.63.63 0 00.156-.412c0-.206-.13-.361-.364-.464-.156-.052-.494-.13-.988-.181l-.754-.077c-.494-.052-.858-.104-1.066-.155a3.06 3.06 0 01-.623-.232 1.862 1.862 0 01-.702-.645 1.732 1.732 0 01-.234-.903c0-.542.182-1.006.572-1.367.493-.465 1.247-.723 2.261-.723.416 0 .806.052 1.17.13.364.076.806.231 1.352.463.182.078.312.104.338.104a.318.318 0 00.234-.104l.286.078z" fill="#14235A"/><path d="M44.27 6.063c-21.628 1.264-20.822 1.16-21.55 1.393-.026 0-.026 0-.052.025-.91.31-1.456.903-1.767 1.342 2.573-.026 12.607-.155 22.512-.232.286-1.006.546-1.832.858-2.528zM22.642 17.026c-.754 0-1.377.62-1.377 1.368 0 .748.623 1.367 1.377 1.367s1.378-.62 1.378-1.367c0-.748-.624-1.368-1.378-1.368zM12.66 18.6a.343.343 0 00-.338-.335h-1.066c-.468 0-.468.697 0 .697h1.066c.182 0 .338-.155.338-.361zM64.287 7.56H51.68c-.181.18-.494.49-.857.928 5.9-.052 10.996-.078 13.387-.052.052-.335.052-.619.078-.877zm30.909 9.002c-.312-1.057-.91-1.444-1.534-2.09-2.21-2.295-7.33-3.611-12.114-4.333 4.524 1.238 9.593 3.43 13.648 6.423z" fill="#DF5151"/><path d="M49.912 8.513c.468-.67 4.887-5.366 4.887-5.366.728-.774 1.456-1.057 2.626-1.057h8.084c-.182 1.754-.702 7.017-.624 6.423.26-.051 9.099-.129 15.78.774 4.965.67 8.812 1.78 11.542 3.302C83.29 1.78 70.344 0 62.832 0c-1.924 0-4.446.206-5.642.335-1.351.13-2.599.8-3.56 1.755l-3.614 3.585a.388.388 0 01-.234.104c-.078 0-1.456.025-4.653.232-.338.67-.624 1.522-.91 2.554a430.56 430.56 0 015.693-.052zm24.02-1.47c.052.103.026.232-.026.335a.372.372 0 01-.312.155h-7.487l.468-5.443c.598.051 1.404.18 2.288.464 2.287.748 4.107 2.244 5.069 4.489z" fill="#DF5151"/><path d="M87.865 19.451c-.727 0-1.3-.567-1.3-1.29 0-.722.573-1.29 1.3-1.29h6.525c-5.043-3.585-11.724-6.165-16.637-6.759-5.979-.722-11.62 1.058-12.374 6.372-.416 2.838 1.196 3.767 2.002 4.025v-1.213c0-4.385 3.613-7.868 7.929-7.868 4.445 0 7.954 3.56 7.954 7.868v1.265l13.934-.052c-.13-.284-.26-.8-.39-1.084h-8.943v.026z" fill="#DF5151"/><path d="M74.946 12.176c-3.302.181-5.953 2.89-5.953 6.218 0 3.43 2.807 6.243 6.29 6.243 3.458 0 6.291-2.786 6.291-6.243 0-3.483-2.937-6.398-6.628-6.218zm.338 11.093c-2.704 0-4.914-2.192-4.914-4.875s2.21-4.876 4.914-4.876c2.703 0 4.913 2.193 4.913 4.876 0 2.683-2.21 4.875-4.913 4.875zm22.252-5.675h-9.67a.547.547 0 00-.546.541c0 .31.26.542.546.542h9.67a.547.547 0 00.546-.541.547.547 0 00-.546-.542z" fill="#DF5151"/><path d="M75.284 17.026c-.754 0-1.378.62-1.378 1.368 0 .748.624 1.367 1.378 1.367.753 0 1.377-.62 1.377-1.367 0-.748-.624-1.368-1.377-1.368zm-10.659-.644c.546-3.896 3.64-6.45 8.37-7.017-2.443-.104-4.6-.13-6.212-.155-1.716-.026-1.534-.026-1.872-.026-.234 2.193-.676 5.34-.936 7.327-.39 3.095-3.223 3.121-4.523 3.198-1.56.078-1.404.155-4.835.026-3.38-.129-4.94-.438-5.901-2.063-.806-1.368-.832-3.586-.052-6.579a7.33 7.33 0 01.754-1.832c-1.768.026-3.588.026-5.433.052-.494 1.986-1.066 4.721-3.848 4.644-.598-.026-1.975-.258-4.107-.697 3.067 1.703 6.94 4.386 8.605 7.456l21.394-.078c-.858-.67-1.742-1.935-1.404-4.256zm-42.113-4.154c-.728 0-1.404.103-2.053.31-2.392.877-4.108 3.173-4.108 5.856 0 3.43 2.808 6.243 6.291 6.243 3.458 0 6.291-2.786 6.291-6.243 0-1.497-.52-2.864-1.404-3.922a6.719 6.719 0 00-5.017-2.244zm.13 11.041c-2.703 0-4.913-2.192-4.913-4.875s2.21-4.876 4.913-4.876c2.704 0 4.913 2.193 4.913 4.876 0 2.683-2.21 4.875-4.913 4.875z" fill="#DF5151"/><path d="M27.035 10.242c-1.923-.516-4.263-.826-6.238-.645-3.302.335-6.89 3.044-8.32 7.945.52.078.937.542.937 1.058 0 .593-.494 1.084-1.092 1.084h-.286a7.49 7.49 0 00-.104 1.135h3.327v-2.322c0-3.07 2.08-5.675 4.966-6.604a6.958 6.958 0 012.443-.439c2.21 0 4.16 1.006 5.46 2.58 1.04 1.212 1.69 2.76 1.69 4.463v2.27l14.063-.051c-2.964-4.876-12.088-9.21-16.846-10.474zm22.383 1.032c-.91 3.457-.52 5.185-.026 6.01.728 1.213 1.82 1.574 5.277 1.703 2.964.103 2.808.078 4.887-.026 1.768-.077 3.432-.541 3.744-2.63.442-2.864.701-4.98.857-7.147-2.495-.026-7.772.026-13.855.078a7.598 7.598 0 00-.884 2.012zm10.84-.723a.87.87 0 01.806.568h1.196c.156 0 .286.129.286.284 0 .154-.13.284-.286.284h-1.196c-.104.335-.442.567-.806.567a.862.862 0 01-.858-.851c.026-.49.39-.852.858-.852zm-20.043 2.657c2.028.052 2.574-1.909 3.042-3.895-5.927.052-11.88.129-16.221.18 2.131.542 4.6 1.523 6.602 2.503 3.51.748 5.797 1.187 6.577 1.212zm1.898-3.173l-1.274 2.374a2.29 2.29 0 01-.416.051h-.078c-.078 0-.208 0-.364-.026l1.274-2.373c.286 0 .572-.026.858-.026zm-1.794.026l-1.222 2.245c-.233-.026-.493-.078-.78-.13l1.145-2.09c.26-.025.571-.025.857-.025zm-1.793.026l-1.04 1.909a20.985 20.985 0 00-.78-.155l.962-1.754h.858zm-2.678.026h.858l-.858 1.573a20.81 20.81 0 00-.78-.154l.78-1.42zm-3.041.619l-.702-.31.156-.284h.857l-.311.594zm1.247-.593h.858l-.65 1.212a4.288 4.288 0 01-.286-.077c-.13-.078-.286-.13-.416-.207l.494-.928zm22.643-3.225c0-.052-.026-.078-.026-.13l-1.092-2.321c-.13-.258-.442-.387-.702-.258-.26.129-.39.438-.26.696l.936 1.987h1.144v.026z" fill="#DF5151"/></g><defs><clipPath id="clip0"><path fill="#fff" d="M0 0h109v38H0z"/></clipPath></defs></svg>