<svg width="35" height="33" fill="none" xmlns="http://www.w3.org/2000/svg"><g clip-path="url(#clip0)" fill="#DF5151"><path d="M21.5 27.5c-3.576 0-7.42.496-11 .5 0-.5.277-1.47.297-1.68.136-1.583-1.157-3.03-2.719-3.03-.222 0-1.52.335-1.578.113C5.195 18.533 4.313 14.367 3 9.5c-.55-2.043-2.443-4.961-3-7-.043-.153 2.107-.41 2.275-.417.934-.036 1.854.02 2.73.407.787.346 1.332.918 1.62 1.768 1.566 4.581 3.136 9.158 4.705 13.739.596 1.736 1.192 3.472 1.784 5.213.055.157.125.193.28.193 5.348-.004 10.696.004 16.044-.012 1.149-.004 1.975.5 2.559 1.487.284.475.483.99.674 1.515.05.145.458 1.607.329 1.607-.67-.004-1.83 0-2.5 0-2.937 0-6.067-.5-9-.5z"/><path d="M21.55 29.765c-3.688 0-7.372 0-11.06-.004a.83.83 0 00-.457.125c-2.43 1.446-5.581-.13-5.994-2.998-.35-2.441-.794-4.867-1.196-7.296-.428-2.602-.864-5.205-1.3-7.812C1.097 9.117.646 6.458.202 3.795c-.07-.383-.125-.77-.195-1.152-.02-.109.015-.137.101-.17.409-.132.83-.217 1.25-.302.144-.028.199.02.238.166.56 2.119 1.13 4.226 1.698 6.337 1.301 4.843 2.602 9.685 3.907 14.524.043.153.027.217-.129.278-1.13.447-1.87 1.636-1.772 2.824.113 1.374.954 2.401 2.2 2.68 1.235.273 2.52-.404 3.039-1.616.07-.162.144-.222.323-.222 7.276.004 14.552.004 21.827 0 .168 0 .222.056.257.21.133.543.324 1.075.39 1.64.066.543-.133.773-.67.773H21.55z"/><path d="M21 32.994c-3.586 0-7.173-.006-10.759.006-.202 0-.245-.085-.24-.382.01-1.09.01-2.182 0-3.273-.005-.29.058-.345.229-.345 1.328.012 2.653.006 3.982.006h17.364c.42 0 .42 0 .42.667 0 .988-.008 1.982.004 2.97.004.303-.058.357-.237.357-3.59-.012-7.177-.006-10.763-.006zm4.196-28.961c.289.016.69.044 1.087.104.086.013.662-.197.717-.137 1.297 1.475 2.7 2.53 4 4 .055.064-.55.803-.541.887.14 2.083-.34 4.005-1.395 5.778-.074.129-.113.117-.202.012-2.723-3.098-5.45-6.197-8.176-9.295-.023-.024-.039-.052-.066-.076-.117-.097-.074-.145.039-.206a9.027 9.027 0 014.537-1.067z"/><path d="M27.296 2.655a.63.63 0 01.417.222c.186.205.37.415.549.624.07.08.117.097.198.012.203-.205.417-.403.627-.604.246-.234.53-.218.752.04.3.343.3.343.616.036 1.008-.97 2.017-1.937 3.018-2.912.11-.105.16-.097.253.016.394.463.795.922 1.204 1.37.105.116.082.165-.016.261-1.067 1.02-2.13 2.047-3.201 3.062-.121.113-.121.173-.008.29.471.52.463.653-.043 1.144-.14.137-.276.283-.428.411-.11.093-.098.154-.004.25.179.186.35.379.522.572.268.302.257.758-.02 1.012-.273.25-.69.217-.958-.09-1.328-1.51-2.652-3.02-3.98-4.527a.734.734 0 01-.211-.565c.027-.35.308-.624.713-.624zm2.714 11.92c0 .278-.149.52-.39.62a.62.62 0 01-.744-.177c-1.083-1.225-2.162-2.45-3.24-3.674-1.804-2.051-3.611-4.098-5.415-6.148-.304-.343-.292-.79.02-1.048.276-.23.646-.19.907.1l2.127 2.41c2.162 2.458 4.327 4.911 6.489 7.365.144.16.253.326.245.552zm-10.173-6.34a.378.378 0 01-.132.258c-1.928 1.853-3.86 3.706-5.788 5.56-.164.157-.34.169-.46.032-.129-.145-.105-.33.062-.492 1.905-1.829 3.81-3.662 5.714-5.491.074-.073.144-.153.257-.173a.294.294 0 01.347.306zm5.063 5.733c-.003.145-.077.226-.16.306-1.117 1.072-2.235 2.148-3.353 3.22-.534.511-1.067 1.023-1.597 1.534-.117.113-.245.15-.39.065-.128-.077-.159-.206-.128-.35.02-.085.082-.138.137-.19 1.223-1.172 2.442-2.349 3.665-3.521.432-.415.864-.83 1.297-1.25.105-.1.214-.148.354-.084.125.057.164.161.175.27zm-8.849.504c-.156 0-.257-.049-.304-.166a.309.309 0 01.07-.366l.725-.701 3.899-3.76c.039-.035.074-.076.117-.108.14-.113.311-.1.416.028.113.137.113.294-.023.431-.265.266-.541.52-.81.782l-3.844 3.698c-.082.081-.156.166-.246.162zm6.216-3.473c0 .125-.074.21-.16.29-1.082 1.04-2.169 2.079-3.252 3.118l-.798.766c-.167.16-.331.173-.46.036-.128-.137-.109-.318.055-.476l4.07-3.92c.105-.1.218-.173.366-.1.117.056.18.149.18.286zm.106 8.388c-.156.004-.25-.06-.3-.182a.315.315 0 01.078-.366c.198-.194.397-.383.596-.576.985-.943 1.966-1.886 2.952-2.829.027-.028.054-.056.086-.084.144-.121.334-.121.436 0 .101.12.093.33-.035.455-.32.314-.647.62-.97.93-.86.826-1.718 1.652-2.579 2.474-.081.085-.16.182-.264.178zm1.223-6.869c.011.108-.059.185-.137.257-.74.713-1.484 1.427-2.224 2.136-.152.145-.335.145-.448.016-.113-.13-.093-.319.059-.464l1.881-1.808c.129-.125.253-.25.386-.371a.278.278 0 01.323-.053c.113.049.163.146.16.287zM16.842 19a.3.3 0 01-.242-.198c-.054-.145-.004-.257.101-.358l1.138-1.096c.28-.27.56-.54.837-.81.18-.173.37-.197.495-.06.128.14.097.334-.082.508-.646.62-1.293 1.24-1.936 1.86-.081.081-.163.158-.311.154z"/></g><defs><clipPath id="clip0"><path fill="#fff" d="M0 0h35v33H0z"/></clipPath></defs></svg>