<svg width="33" height="33" fill="none" xmlns="http://www.w3.org/2000/svg"><g clip-path="url(#clip0)" fill="#DF5151"><path d="M30.906 20.59c-.285-.24-.596-.473-.93-.697.4.712.609 1.464.609 2.236 0 2.137-1.554 4.091-4.377 5.502-2.609 1.305-6.057 2.023-9.708 2.023s-7.099-.718-9.708-2.023c-2.823-1.41-4.377-3.365-4.377-5.502 0-.772.21-1.524.609-2.236-.334.224-.645.456-.93.697C1.139 21.394 0 22.69 0 24.303c0 .944.385 1.877 1.144 2.775.795.94 1.951 1.792 3.438 2.536 3.167 1.583 7.4 2.455 11.918 2.455 4.518 0 8.751-.872 11.919-2.456 1.486-.743 2.642-1.596 3.437-2.535.76-.898 1.144-1.831 1.144-2.775 0-1.612-1.139-2.91-2.094-3.713z"/><path d="M16.5 25.306c-4.316 0-7.98-2.843-9.219-6.755-1.878 1.022-2.932 2.293-2.932 3.578 0 1.346 1.205 2.722 3.307 3.773 2.346 1.173 5.487 1.819 8.844 1.819 3.357 0 6.498-.646 8.844-1.819 2.102-1.051 3.307-2.426 3.307-3.773 0-1.285-1.054-2.556-2.932-3.578-1.239 3.912-4.903 6.755-9.219 6.755z"/><path d="M16.5 23.372c4.265 0 7.734-3.47 7.734-7.734a7.712 7.712 0 00-1.162-4.076L16.5.931 9.929 11.56a7.715 7.715 0 00-1.163 4.078c0 4.265 3.47 7.734 7.734 7.734z"/></g><defs><clipPath id="clip0"><path fill="#fff" d="M0 0h33v33H0z"/></clipPath></defs></svg>