<svg width="42" height="32" fill="none" xmlns="http://www.w3.org/2000/svg"><g clip-path="url(#clip0)" fill="#DF5151"><path d="M17.598 32H.972C.157 32 0 31.83 0 30.952V25.67c0-.645.213-.877.805-.877.491-.01.982-.01 1.482 0 .222 0 .296-.08.296-.323a52.9 52.9 0 010-1.713c.009-.252-.093-.302-.296-.313-.723-.03-.824-.15-.824-.927v-1.41c0-.605.083-1.22-.445-1.694-.24-.212-.277-.615-.277-.978 0-4.374 0-8.748.009-13.122 0-1.089.777-1.945 1.777-1.976.398-.01.796-.01 1.204 0 1.074.01 1.897.847 1.897 2.006.019 4.344.01 8.678 0 13.022 0 .504-.176.957-.49 1.32-.185.212-.24.433-.24.716.018.735.008 1.471 0 2.207 0 .615-.186.836-.732.826-.306-.01-.398.091-.38.424.028.514.019 1.038 0 1.562-.01.292.084.373.343.363.722-.02 1.444-.01 2.166-.01H34.14c.935 0 1.11.191 1.11 1.199V30.9c0 .867-.203 1.079-.971 1.079-5.564.02-11.128.02-16.682.02z"/><path d="M6.85 16.408V5.816c.13-.01.13.12.158.191.268.575.703.887 1.286.897.926.02 1.852 0 2.768.02.352.01.306-.222.306-.453V1.089c0-.131-.01-.273 0-.404.028-.443.268-.715.639-.685.388.04.564.282.564.706 0 1.874.01 3.759-.009 5.634-.01.443.074.665.519.584.138-.02.277-.01.416 0 2.259.161 4.471-.242 6.675-.705.462-.101.934-.192 1.407-.232.324-.02.37-.192.37-.474-.01-1.491 0-2.983 0-4.475 0-.181.01-.373.037-.544.055-.302.25-.464.518-.484.287-.02.5.111.611.423.065.182.056.363.056.545 0 1.461.01 2.912-.01 4.374 0 .302.065.413.37.453 2.287.303 3.398 2.45 3.38 4.294-.065 4.304-.028 8.617-.01 12.92 0 .434-.083.555-.5.555-3.091-.02-6.183-.01-9.284-.01-.13 0-.269.05-.436-.07.445-.797.824-1.633 1.12-2.51.445-1.33.741-2.691.686-4.122a4.963 4.963 0 00-.14-.988c-.25-.998-.879-1.552-1.85-1.552-2.389-.02-4.768-.02-7.156 0-1.13 0-1.907.655-2.49 2.086zm27.476-3.275c0 .736.009 1.35 0 1.965-.019 1.24-.657 1.865-1.778 1.945-1.916.131-2.388-.897-2.351-2.54.065-3.144.019-6.299.019-9.453 0-1.28.648-1.996 1.814-2.006h.046c1.704-.151 2.324.826 2.268 2.439-.065 1.854-.009 3.719-.018 5.584 0 .322.074.524.333.695.444.292.861.635 1.305.947.565.393.907.948.982 1.674.027.322.12.332.37.282.74-.131 1.49-.252 2.23-.343 1.204-.151 2.111.464 2.398 1.603.352 1.37-.796 2.852-2.1 2.68-1.158-.15-2.306-.383-3.463-.564-.444-.07-.639-.312-.62-.806.018-.736-.019-1.472.009-2.207.028-.625-.195-1.059-.685-1.371-.232-.131-.435-.303-.76-.524z"/><path d="M31.947 10.524c0 .727-.099 1.447.049 2.174.098.374-1.577.284-3.055.297-1.627.021-2.464-.02-2.464-.304-.05-1.135.394-2.277-.247-3.412-.197-.36-.838-.7-1.922-1.025-.69-.2-.197-.242 1.232-.249 6.357-.02 6.357-.02 6.357.865.05.547.05 1.1.05 1.655z"/></g><defs><clipPath id="clip0"><path fill="#fff" d="M0 0h42v32H0z"/></clipPath></defs></svg>