<svg width="32" height="25" fill="none" xmlns="http://www.w3.org/2000/svg"><g clip-path="url(#clip0)"><path d="M7.52 5.104c.04.553-.118 1.152-.433 1.705-.171.31-.066.438.223.587.763.404 1.538.807 2.275 1.245.328.196.447.08.604-.139.618-.864 1.223-1.728 1.854-2.58.763-1.014 2.038-1.36 3.248-.75 1.8.911 3.55 1.89 5.31 2.858 2.67 1.463 5.326 2.938 8.008 4.378 1.656.899 2.024 1.993 1.051 3.48-.473.714-.946 1.428-1.498 2.085-.395.46-.198.622.25.864 1.012.53 2.01 1.082 2.997 1.636.657.368.762.84.355 1.417-.592.852-1.197 1.693-1.814 2.534-.46.634-.973.726-1.723.323-1.065-.588-2.143-1.175-3.195-1.774-.276-.15-.433-.127-.683.057-.776.565-1.92.634-2.761.173-4.523-2.466-9.032-4.942-13.568-7.42-.933-.506-1.354-1.244-1.196-2.188.065-.392-.105-.588-.46-.772A77.865 77.865 0 013.59 11.29C1.276 9.966.434 7.72 1.46 5.472c.158-.357.092-.53-.263-.69a4.493 4.493 0 01-.618-.335c-.54-.334-.763-.864-.447-1.36A47.07 47.07 0 011.986.45c.355-.472.973-.564 1.472-.322 1.42.68 2.853 1.382 3.55 2.788.342.68.565 1.36.513 2.189zm6.68 2.004c-.448.012-.763.162-.895.553-.144.415-.013.76.408 1.003.907.507 1.814 1.002 2.721 1.497a2112.13 2112.13 0 008.967 4.885c.63.346 1.183.242 1.459-.219.276-.449.053-.921-.54-1.244a5542.188 5542.188 0 01-11.332-6.21c-.25-.138-.486-.265-.789-.265zm-8.573-3.34c-.013-.623-1.012-1.775-1.643-1.936-.329-.08-.618 0-.789.265-.17.276-.144.576.158.772.46.3.736.68.92 1.152.105.3.395.472.776.392.394-.081.539-.358.578-.646z" fill="#DF5151"/></g><defs><clipPath id="clip0"><path fill="#fff" d="M0 0h32v25H0z"/></clipPath></defs></svg>