<svg width="37" height="30" fill="none" xmlns="http://www.w3.org/2000/svg"><g clip-path="url(#clip0)" fill="#DF5151"><path d="M21.394 19.83c.624.664 1.343 1.11 2.099 1.507 2.454 1.28 5.054 1.742 7.74 1.759 1.257.008 2.485.154 3.617.818.872.51 1.51 1.248 1.721 2.358.204 1.062.124 1.175-.82 1.175-11.561 0-23.115 0-34.676.009-.29 0-.392-.073-.385-.414.022-.9.014-1.807 0-2.707-.007-.283.072-.396.327-.445a63.235 63.235 0 005.01-1.256c.523-.154.886-.43 1.148-.98.363-.779.806-1.5 1.198-2.262.124-.243.262-.324.508-.324 3.537.008 7.08 0 10.617.016.364 0 .661-.064.886-.405.218-.332.509-.438.88-.413.58.032 1.161 0 1.735.016.218.008.327-.04.32-.324 0-.34-.146-.802.072-.997.189-.17.58-.016.879-.065.392-.056.457.122.45.519a98.431 98.431 0 000 3.274c.007.3-.073.43-.349.38-.043-.007-.094 0-.145 0-.29-.015-.639.13-.842-.056-.204-.186-.051-.584-.073-.891-.007-.17-.029-.284-.218-.284-.566 0-1.133-.008-1.7-.008z"/><path d="M29.244 21.734c.204-.21.349-.348.48-.502.53-.6.595-1.16.254-1.905-.247-.527-.567-.997-.88-1.475-.703-1.061-1.488-2.05-2.061-3.217-.538-1.094-.821-2.228-.342-3.436.363-.932 1.031-1.548 1.808-2.026 1.199-.729 2.404-1.434 3.61-2.147.85-.503 1.59-.422 2.157.235.617.713.733 1.79.29 2.658-.153.3-.356.543-.581.77-.792.81-.922 1.54-.494 2.65.407 1.053.922 2.042 1.416 3.047.552 1.126.937 2.301.966 3.598.022.98-.065 1.953-.203 2.99-2.005-1.337-4.205-1.086-6.42-1.24zM11 19.779c.16-.187.276-.324.392-.462 2.723-3.152 5.454-6.305 8.177-9.457 1.14-1.321 1.257-3.728.218-5.09-.777-1.02-1.786-1.393-2.963-1.093-1.249.324-1.99 1.872-1.547 3.184.29.867 1.148 1.362 1.932 1.119.494-.154.842-.592.85-1.167 0-.308.109-.397.341-.43.247-.04.501-.097.74-.17.233-.073.284.032.306.268.145 1.482-.9 2.917-2.259 3.079-2.476.3-4.168-2.447-3.137-5.081.857-2.18 3.166-3.088 5.214-2.05 2.084 1.053 3.101 3.63 2.44 6.158-.189.722-.45 1.394-.871 1.978-.16.219-.124.348.05.527.567.583 1.112 1.199 1.678 1.782.16.162.182.252.007.43-.493.494-.958 1.029-1.452 1.523-.182.179-.218.34-.138.592.32 1.045.603 2.099.922 3.144.095.324.044.462-.276.446-.181-.008-.363.024-.544-.008-.574-.098-1.039.08-1.38.616-.087.137-.218.186-.378.186-2.709-.008-5.41-.008-8.119-.008-.036.024-.08.008-.203-.016zM8.961 13.8c-.087 1.467-.675 2.74-1.8 3.696-.545.462-.778 1.118-.887 1.84-.065.437-.116.875-.05 1.328.05.349-.102.6-.414.697-1.38.438-2.782.794-4.19 1.094-.073.017-.168.114-.211-.04-.03-.097-.036-.219.072-.284.03-.024.059-.04.095-.065.879-.486 1.147-1.312 1.053-2.35-.095-1.02-.465-1.84-1.155-2.552C.102 15.745-.312 13.963.232 11.969c.516-1.904 2.077-3.241 3.791-3.436 2.665-.308 5.033 2.075 4.938 5.268zm9.556 13.298c6.014 0 12.02 0 18.033-.015.346 0 .464.136.449.892C36.977 30 36.99 30 36.019 30H3.783c-1.141 0-2.274-.015-3.415 0-.258 0-.354-.151-.331-.68.036-.71-.148-1.648.08-2.1.207-.409.656-.122.994-.122h17.407z"/></g><defs><clipPath id="clip0"><path fill="#fff" d="M0 0h37v30H0z"/></clipPath></defs></svg>