<svg width="54" height="54" fill="none" xmlns="http://www.w3.org/2000/svg"><g clip-path="url(#clip0)" fill="#DF5151"><path d="M34.37 22.83c-.716-.618-1.905-.416-2.652.449-.747.865-.772 2.072-.057 2.69.716.617 1.906.416 2.653-.45.747-.865.772-2.071.056-2.689z"/><path d="M42.02 18.722c-.358-.56-.77-1.093-1.237-1.591l-4.342 5.031a4.4 4.4 0 01-.32 5.319 4.4 4.4 0 01-5.216 1.095l-4.342 5.032c.524.364 1.072.676 1.637.937-.174.267-.4.497-.674.542a1.161 1.161 0 00.383 2.289c.802-.134 1.424-.573 1.889-1.112.261-.303.473-.638.64-.967.63.138 1.27.219 1.91.244-.057.316-.177.618-.413.765a1.16 1.16 0 00-.37 1.599c.34.541 1.256.968 2.268-.205.58-.67.814-1.543.872-2.318a11.063 11.063 0 001.861-.5c.068.313.072.637-.09.863a1.16 1.16 0 101.89 1.347c.736-1.034.638-2.281.318-3.256a10.904 10.904 0 001.527-1.176c.18.262.307.56.245.829a1.16 1.16 0 002.01 1.018c.487-.565.581-2.135-.701-3.625.375-.536.696-1.096.962-1.673.268.174.498.4.543.671a1.16 1.16 0 002.288-.383c-.21-1.253-1.162-2.065-2.078-2.528.137-.63.22-1.27.244-1.91.32.06.622.183.765.412a1.16 1.16 0 001.968-1.229c-.675-1.079-1.868-1.465-2.892-1.54a10.979 10.979 0 00-.5-1.86c.319-.067.643-.07.863.087a1.16 1.16 0 101.347-1.888c-1.034-.737-2.281-.639-3.255-.319zm-1.738-5.372c-5.467-3.4-12.73-2.388-17.044 2.61-4.406 5.107-4.161 12.443-.09 17.242a.794.794 0 001.207.006l5.286-6.126a4.4 4.4 0 01.32-5.319 4.4 4.4 0 015.215-1.095l5.287-6.125a.794.794 0 00-.181-1.193z"/><path d="M17.725 23.633a15.458 15.458 0 013.757-9.188 15.626 15.626 0 014.57-3.627c-3.109-1.852-7.203-1.266-9.647 1.566L3.602 27.22a3.53 3.53 0 00.365 4.973l5.115 4.414a3.503 3.503 0 002.563.847 3.504 3.504 0 002.41-1.212c1.455-1.687 3.758-2.92 5.909-3.5a15.726 15.726 0 01-2.24-9.108zm-2.089 8.405c-1.22.697-2.408 1.61-3.337 2.687a1.205 1.205 0 01-1.7.125l-5.116-4.415a1.207 1.207 0 01-.125-1.7l2.754-3.19 7.524 6.493z"/></g><defs><clipPath id="clip0"><path fill="#fff" transform="rotate(-49.205 31.414 14.384)" d="M0 0h38v38H0z"/></clipPath></defs></svg>