<svg width="33" height="33" fill="none" xmlns="http://www.w3.org/2000/svg"><g clip-path="url(#clip0)" fill="#DF5151"><path d="M22.36 33c.253-.632.253-1.316.253-1.982l.054-25.58c0-1.473.451-1.912 1.894-1.894 1.28.018 1.749.474 1.749 1.79.018 3.877.018 7.771.018 11.649v14.192c0 .615-.018 1.229-.18 1.825H22.36zM4.996 13.456c0 3.632-.018 7.246 0 10.877 0 .913-.162 1.772-1.1 2.106-1.064.386-2.2.473-3.192-.21-.65-.44-.721-1.159-.703-1.896C.019 18 0 11.65 0 5.316 0 4.228-.017 3.158 0 2.07.037.702.758.018 2.129 0h.45c1.75 0 2.417.632 2.417 2.316v11.14zM33 13.28v10.966c0 .877-.072 1.754-1.01 2.158-1.028.438-2.11.456-3.12-.088-.775-.421-.865-1.193-.865-1.983V5.403c0-1.052-.018-2.105 0-3.157C28.04.632 28.708 0 30.33 0 32.441 0 33 .526 33 2.579v10.702zm-17.456.123v7.807c0 1.65-1.19 2.404-2.795 1.772-.685-.263-.865-.842-.865-1.49V5.456c0-1.649 1.226-2.421 2.795-1.772.721.298.865.895.865 1.58-.018 2.7 0 5.42 0 8.14zm-5.374-.053v7.896c0 1.596-1.478 2.456-2.939 1.684-.631-.333-.74-.93-.74-1.58.019-4.42 0-8.824 0-13.245 0-1.017-.017-2.052 0-3.07.019-1.052.56-1.491 1.768-1.509 1.28-.017 1.875.421 1.875 1.492.037 2.79.018 5.561.037 8.333-.018 0-.018 0 0 0zm7.25-.052v-8.07c0-1.245.45-1.666 1.749-1.684 1.352-.018 1.875.421 1.875 1.65.018 5.403.018 10.806 0 16.21 0 1.263-.487 1.684-1.767 1.684-1.443 0-1.857-.386-1.857-1.737v-8.053z"/></g><defs><clipPath id="clip0"><path fill="#fff" d="M0 0h33v33H0z"/></clipPath></defs></svg>