<svg width="36" height="28" fill="none" xmlns="http://www.w3.org/2000/svg"><g clip-path="url(#clip0)"><path d="M35.98 17.21c0 2.483-.02 4.985.02 7.467 0 .654-.218.859-.89.84-1.345-.037-2.71.019-4.055-.018-.613-.019-.95.168-1.167.728-.732 1.754-.752 1.754-2.69 1.754-3.56 0-7.121-.018-10.681.019-.772 0-1.286-.13-1.444-.896-.297-1.288-1.088-1.867-2.532-1.605-.317.056-.673-.038-.99.018-2.017.336-3.54-.336-4.707-1.922-.415-.56-.712-1.046-.712-1.755.04-4.61.04-9.203 0-13.813 0-.784.237-1.083 1.048-.971 1.563.224 2.908-.187 4.114-1.139.653-.522 1.425-.653 2.295-.634 2.314.037 4.609.074 6.923-.019 1.286-.056 2.393.224 3.383.97.85.654 1.8.897 2.927.84 1.543-.074 3.105 0 4.648-.037.712-.018.97.224.87.859-.138.859.238 1.101 1.128 1.083 2.492-.056 2.492-.019 2.492 2.352.02 1.96.02 3.92.02 5.88zM.02 15.363c0-2.016.02-4.032-.02-6.048-.02-.84.336-1.176 1.226-1.158 1.207.019 1.444.168 1.464 1.12.02 1.027.04 2.054 0 3.08-.02.579.218.822.811.728.97-.168 1.167.28 1.108 1.102-.06.896-.04 1.792 0 2.706.02.579-.198.822-.791.728-.97-.15-1.187.299-1.128 1.102.06.858.02 1.736 0 2.613-.02 1.083-.237 1.232-1.424 1.25-.95.02-1.286-.373-1.266-1.231.04-2.016.02-3.995.02-5.992zM17.308 4.07c-.752 0-1.523-.038-2.275.018-.653.037-.93-.205-.83-.803.177-1.026-.317-1.306-1.306-1.194-.376.037-.792.056-1.148-.131-.455-.261-.593-.653-.494-1.12.119-.579.554-.803 1.147-.821h5.44c1.444 0 2.888.018 4.351 0 .811-.02 1.405.224 1.405 1.064 0 .784-.574 1.045-1.345 1.026-.198 0-.396.019-.594 0-.93-.15-1.266.262-1.127 1.083.119.69-.178.952-.93.896-.791-.075-1.543-.019-2.294-.019z" fill="#DF5151"/><rect x="15" y="20" width="15" height="2" rx="1" fill="#F5EFE5"/></g><defs><clipPath id="clip0"><path fill="#fff" d="M0 0h36v28H0z"/></clipPath></defs></svg>