<svg width="44" height="38" fill="none" xmlns="http://www.w3.org/2000/svg"><g clip-path="url(#clip0)" fill="#DF5151"><path d="M26.076 29.683c-1.508-.028-3.099 1.932-2.54 3.192.474 1.092.195 1.596-.698 2.24-1.09.757-1.899 1.429-3.127.168-.698-.728-3.239.364-3.434 1.457-.224 1.176-.838 1.372-1.843 1.26-1.005-.112-2.233.448-2.54-1.288-.252-1.345-2.737-2.1-3.77-1.177-.837.757-1.451.673-2.205-.055-.726-.7-2.066-.925-1.34-2.52.614-1.345-.922-3.39-2.43-3.25-1.032.113-1.34-.335-1.619-1.203-.446-1.316-.977-2.437.81-3.249.866-.392.586-3.108-.335-3.612C0 21.086-.223 20.47.28 19.434c.447-.98.335-2.324 2.122-2.044 1.284.196 2.596-1.905 2.234-3.193-.14-.448-.67-.952-.168-1.4.782-.7 1.62-1.372 2.596-1.82.112-.056.335.112.447.252.921 1.036 1.954.896 3.127.448.726-.28 1.256-.588 1.312-1.372.084-1.036.698-1.288 1.62-1.176.446.056.92.056 1.395 0 .698-.084.978.28 1.173.868.67 1.932 2.624 2.576 4.244 1.372.53-.392.921-.504 1.424-.028.418.364.865.728 1.34.98.726.392.753.868.502 1.596-.614 1.764.67 3.585 2.485 3.473.81-.028 1.2.224 1.396.98.14.532.307 1.064.503 1.596.25.616.055 1.008-.475 1.4-1.62 1.176-1.591 3.276.028 4.509.53.392.698.784.447 1.4-.168.42-.336.868-.42 1.316-.195.896-.641 1.4-1.535 1.092zm-18.51-6.105c0 3.585 2.987 6.581 6.533 6.553 3.49-.028 6.421-2.968 6.477-6.497.056-3.528-2.931-6.58-6.505-6.608-3.573 0-6.505 2.94-6.505 6.552z"/><path d="M38.333 18.986c.307.924-.335 1.232-1.145 1.54-.838.336-1.368.336-1.955-.504-1.032-1.484-2.345-1.456-3.406.084-.614.896-1.172.644-1.982.392-.865-.28-1.144-.672-1.06-1.596.167-1.652-.866-2.52-2.513-2.184-.754.168-1.368.196-1.815-.7-.391-.813-.642-1.373.14-2.157 1.172-1.176.949-2.576-.587-3.276-1.033-.476-.95-1.176-.837-2.016.111-.924.642-1.176 1.507-1.26 1.508-.112 2.234-1.4 1.62-2.829-.363-.84-.363-1.372.418-1.988.754-.616 1.313-.756 2.15-.168 1.284.896 2.652.42 3.043-1.12.251-.952.698-1.232 1.647-1.204.922.028 1.396.196 1.675 1.176.42 1.596 1.76 2.044 3.155 1.092.726-.504 1.229-.504 1.899.112.698.616 1.06 1.092.586 2.1-.698 1.485.056 2.689 1.703 2.857.81.084 1.284.364 1.368 1.232.084.84.28 1.54-.782 2.016-1.619.728-1.814 2.044-.558 3.36.726.756.475 1.288.084 2.073-.419.868-.977.924-1.787.756-1.675-.42-2.624.392-2.569 2.212zM33.53 15.12c2.568 0 4.606-2.016 4.606-4.536 0-2.492-2.122-4.62-4.606-4.592-2.43.028-4.495 2.072-4.551 4.508-.056 2.52 2.01 4.593 4.55 4.62z"/></g><defs><clipPath id="clip0"><path fill="#fff" d="M0 0h44v38H0z"/></clipPath></defs></svg>