<svg width="44" height="40" fill="none" xmlns="http://www.w3.org/2000/svg"><g clip-path="url(#clip0)" fill="#DF5151"><path d="M44 16.019c-.036.143-.072.286-.112.425a2.533 2.533 0 01-.657 1.079c-2.508 2.484-5.02 4.968-7.53 7.452-.13.13-.188.094-.296-.014-1.96-1.938-3.92-3.871-5.884-5.8-.576-.564-1.17-1.11-1.749-1.67-.09-.09-.189-.102-.301-.102-1.488 0-2.976.004-4.468 0a.493.493 0 00-.36.138c-.675.636-1.353 1.267-2.027 1.898-.994.927-2.24.953-3.278.072-.921-.784-.948-2.444-.009-3.254.967-.837 1.87-1.741 2.779-2.636.52-.52 1.132-.766 1.87-.766 2.76.01 5.52-.004 8.284.014a.95.95 0 00.738-.3c1.757-1.75 3.524-3.487 5.286-5.228.126-.125.184-.12.31 0 2.185 2.166 4.37 4.328 6.568 6.485.454.448.72.976.84 1.59-.004.2-.004.411-.004.617z"/><path d="M16.525 21.135c-.427.255-.742.591-1.065.927-.122.125-.185.13-.31.004-.967-.967-1.943-1.92-2.909-2.887-.112-.112-.211-.143-.369-.112-3.555.685-6.657-.192-9.188-2.784C.697 14.252-.157 11.758.032 8.925a9.107 9.107 0 01.719-2.98c.018-.05.045-.095.094-.202.553.568 1.075 1.119 1.614 1.656 1.182 1.173 2.36 2.35 3.556 3.51 1.973 1.91 5.282 1.002 5.943-1.643.323-1.298-.032-2.435-.976-3.375-1.64-1.634-3.295-3.254-4.94-4.879C5.849.82 5.849.82 6.105.717c5.7-2.252 11.989 1.096 13.234 6.986a9.315 9.315 0 01-.058 4.123.515.515 0 01-.153.255c-.45.43-.895.86-1.33 1.298-.5.501-1.021.984-1.56 1.445a4.005 4.005 0 00.13 6.181c.04.032.085.072.157.13zm8.509-1.983c.44 0 .881.004 1.326-.005.126 0 .22.032.315.126 4.09 4.05 8.19 8.087 12.272 12.147 1.398 1.387 1.852 3.084 1.304 4.968-.544 1.867-1.839 3.044-3.745 3.473-1.703.385-3.245-.026-4.535-1.204-.935-.854-1.817-1.776-2.725-2.663-.094-.09-.09-.147-.009-.233.13-.143.252-.295.383-.438 1.505-1.755 1.146-4.274-.8-5.537-.113-.071-.18-.138-.176-.295.036-1.584-.827-2.9-2.297-3.505-.17-.071-.252-.147-.274-.344-.23-1.889-2.073-3.348-3.979-3.156-.166.018-.27-.009-.36-.17a3.06 3.06 0 00-.7-.837c-.063-.053-.117-.094-.005-.16.832-.507 1.461-1.25 2.171-1.894.216-.192.414-.3.71-.277.378.026.751.004 1.124.004z"/><path d="M23.448 33.671c-.248.117-.446.206-.643.296-.773.344-1.623.188-2.194-.394-.576-.586-.701-1.428-.337-2.193.085-.18.175-.354.287-.586-.265.125-.476.232-.692.322-1.133.483-2.391-.152-2.657-1.343a1.841 1.841 0 01.176-1.28l.283-.564c-.238.116-.418.201-.598.286-.894.417-1.87.184-2.427-.573-.558-.751-.495-1.772.193-2.475a91.194 91.194 0 012.391-2.358c.63-.596 1.592-.667 2.329-.21.76.47 1.079 1.302.823 2.166-.086.286-.176.568-.234.877.18-.18.36-.358.544-.533.252-.241.485-.506.809-.662a1.965 1.965 0 012.32.434c.58.645.651 1.571.175 2.318-.121.188-.252.367-.396.582.225-.031.4-.116.585-.179.665-.241 1.299-.174 1.879.233.867.609 1.052 1.8.422 2.654-.13.18-.278.345-.436.542.355-.014.67-.085.99-.045 1.433.17 2.197 1.795 1.343 2.95a25.185 25.185 0 01-2.13 2.501c-.666.694-1.718.757-2.482.21-.773-.55-1.02-1.53-.602-2.407.08-.166.166-.34.279-.569z"/></g><defs><clipPath id="clip0"><path fill="#fff" d="M0 0h44v40H0z"/></clipPath></defs></svg>