<svg width="48" height="49" fill="none" xmlns="http://www.w3.org/2000/svg"><g clip-path="url(#clip0)"><path d="M27.552 46.529c-.454.098-.87.304-1.353.297-.97-.01-1.771-.366-2.392-1.119-1.544-1.869-3.053-3.756-4.637-5.591-1.093-1.263-1.145-3.226.348-4.46.537-.443 1.08-.89 1.636-1.31 1.223-.912 2.998-.687 3.974.484.49.593.991 1.188 1.47 1.791.154.2.268.253.477.061.327-.3.67-.583 1.033-.853.205-.16.238-.276.057-.482-.405-.456-.776-.94-1.165-1.4-.157-.178-.141-.28.036-.425.57-.452 1.116-.932 1.68-1.378.206-.16.238-.266.057-.473a77.056 77.056 0 01-1.693-2.05c-.17-.217-.277-.168-.454-.021-.633.532-1.28 1.046-1.908 1.584-.188.156-.292.163-.452-.031-2.343-2.85-4.692-5.694-7.047-8.534-.17-.206-.123-.304.054-.45.631-.511 1.253-1.044 1.888-1.55.211-.164.26-.273.06-.504a67.28 67.28 0 01-1.767-2.139c-.15-.182-.247-.191-.425-.034-.539.465-1.102.9-1.637 1.371-.237.206-.364.172-.542-.056-.333-.427-.694-.84-1.032-1.273-.14-.182-.246-.202-.42-.04-.35.31-.716.612-1.091.902-.188.145-.188.254-.036.425.487.567.94 1.162 1.432 1.723 1.08 1.224 1 3.17-.416 4.328-.708.574-1.338 1.253-2.195 1.634-1.156.51-2.627.173-3.427-.797l-4.796-5.807c-1.116-1.352-.95-3.17.414-4.296.643-.53 1.23-1.154 1.98-1.545 1.332-.695 2.803-.368 3.753.795.47.58.951 1.152 1.421 1.733.136.164.232.184.398.037.362-.319.734-.626 1.121-.926.176-.135.16-.25.024-.405-.375-.441-.737-.904-1.118-1.34-.136-.165-.137-.263.034-.404 1.888-1.55 3.776-3.109 5.654-4.67.177-.145.286-.146.43.041.353.45.734.877 1.082 1.321.154.2.266.215.456.049.35-.31.716-.612 1.092-.902.176-.136.164-.234.028-.399-.481-.571-.957-1.147-1.427-1.728-1.125-1.374-.948-3.18.417-4.328.467-.395.95-.774 1.41-1.164 1.249-1.061 3.22-.899 4.288.443a177.002 177.002 0 004.63 5.596c1.03 1.187 1.101 3.016-.08 4.159-.73.713-1.486 1.445-2.434 1.872-1.249.567-2.637.22-3.5-.826-.486-.588-.977-1.17-1.452-1.757-.145-.177-.248-.24-.445-.058a14.65 14.65 0 01-1.092.902c-.193.15-.171.26-.03.42.366.42.703.863 1.074 1.288.18.207.148.323-.053.489-.547.431-1.075.897-1.622 1.33-.212.164-.266.278-.066.508.6.691 1.172 1.395 1.742 2.11.164.21.278.216.48.04.615-.529 1.261-1.033 1.877-1.56.19-.168.3-.19.48.028 2.334 2.837 4.678 5.676 7.023 8.504.175.212.154.318-.052.478-.647.515-1.275 1.053-1.922 1.567-.2.155-.2.264-.038.447a77.06 77.06 0 011.694 2.051c.154.2.263.199.447.037.55-.475 1.126-.92 1.671-1.39.184-.162.299-.168.453.031.376.48.776.94 1.148 1.415.154.198.268.204.452.042.35-.31.716-.611 1.092-.902.176-.135.164-.234.032-.393-.467-.553-.904-1.131-1.384-1.664-1.107-1.22-1.044-3.2.266-4.282.773-.639 1.454-1.389 2.405-1.788 1.102-.456 2.54-.11 3.291.8 1.607 1.946 3.213 3.891 4.814 5.842.912 1.105.987 2.397.216 3.627-.045.067-.142.117-.11.229l-2.472 2.042c-.11-.049-.194.041-.284.076-1.259.496-2.609.147-3.463-.887-.475-.576-.957-1.147-1.42-1.733-.155-.199-.269-.204-.448-.036-.332.294-.675.577-1.032.853-.2.154-.25.275-.058.482.338.374.64.787.971 1.165.157.177.13.278-.047.424a1174.304 1174.304 0 00-5.653 4.67c-.166.136-.264.137-.398-.038-.328-.421-.68-.823-1.014-1.24-.111-.134-.203-.197-.363-.055a24.37 24.37 0 01-1.151.95c-.176.136-.164.235-.028.4.506.6 1.005 1.205 1.5 1.816.576.71.758 1.519.61 2.422-.082.502-.365.904-.57 1.34a440.48 440.48 0 00-2.46 2.022z" fill="#DF5151"/></g><defs><clipPath id="clip0"><path fill="#fff" transform="rotate(-39.548 25.482 7.754)" d="M0 0h27.838v38.973H0z"/></clipPath></defs></svg>