<svg width="23" height="23" fill="none" xmlns="http://www.w3.org/2000/svg"><path d="M21.255 13.322c-.007.038-.012.077-.02.115l-.037-.22c.02.034.038.07.057.105.113-.615.172-1.244.172-1.873a10.285 10.285 0 00-3.026-7.304 10.292 10.292 0 00-7.303-3.025c-.658 0-1.316.062-1.956.185h-.005c.036.02.072.037.108.056l-.218-.034c.037-.006.073-.014.11-.021A6.122 6.122 0 006.269.589 6.076 6.076 0 001.945 2.38 6.11 6.11 0 00.923 9.67l.019-.113.037.217c-.02-.034-.036-.07-.056-.104a10.403 10.403 0 00-.155 1.78c0 1.395.273 2.747.812 4.021a10.282 10.282 0 002.213 3.283c.95.949 2.053 1.694 3.284 2.213 1.273.54 2.626.813 4.02.813.608 0 1.216-.055 1.81-.16l-.106-.058.221.039-.115.019a6.11 6.11 0 003.008.792 6.07 6.07 0 004.323-1.79 6.071 6.071 0 001.791-4.324 6.116 6.116 0 00-.774-2.975zm-10.116 4.453c-3.67 0-5.312-1.804-5.312-3.156 0-.694.512-1.18 1.218-1.18 1.57 0 1.164 2.255 4.094 2.255 1.5 0 2.328-.814 2.328-1.648 0-.5-.247-1.056-1.235-1.3l-3.264-.815c-2.629-.66-3.106-2.08-3.106-3.416 0-2.773 2.612-3.815 5.064-3.815 2.26 0 4.922 1.249 4.922 2.913 0 .713-.617 1.127-1.323 1.127-1.34 0-1.093-1.855-3.793-1.855-1.34 0-2.082.607-2.082 1.475 0 .866 1.058 1.143 1.977 1.352l2.416.537c2.647.59 3.317 2.134 3.317 3.59 0 2.253-1.73 3.936-5.221 3.936zm1.662 3.786l.106.058c.038-.007.077-.012.115-.02l-.22-.038zm8.435-8.124l.019-.115c-.02-.035-.036-.07-.057-.105l.038.22zM.942 9.557l-.019.112c.02.035.037.07.056.104l-.037-.217zM9.245 1.36c-.036-.02-.072-.036-.108-.055-.037.007-.073.015-.11.021l.218.034z" fill="currentColor"/></svg>