<svg viewBox="0 0 512 512" xmlns="http://www.w3.org/2000/svg" xmlns:xlink="http://www.w3.org/1999/xlink"><style>:root&gt;svg{display:none}:root&gt;svg:target{display:block}</style><svg fill="none" viewBox="0 0 16 8" id="arrow-down" xmlns="http://www.w3.org/2000/svg"><path fill-rule="evenodd" clip-rule="evenodd" d="M.37.36a1.29 1.29 0 011.786 0L8 5.036 13.844.36a1.29 1.29 0 011.786 0c.493.48.493 1.257 0 1.736L8.893 7.641a1.29 1.29 0 01-1.786 0L.37 2.095A1.203 1.203 0 01.37.36z" fill="#00002E" fill-opacity=".28"/></svg><svg fill="none" viewBox="0 0 23 16" id="arrow-right" xmlns="http://www.w3.org/2000/svg"><path d="M22.707 8.707a1 1 0 000-1.414L16.343.929a1 1 0 10-1.414 1.414L20.586 8l-5.657 5.657a1 1 0 001.414 1.414l6.364-6.364zM0 9h22V7H0v2z" fill="currentColor"/></svg><svg fill="none" viewBox="0 0 63 48" id="car" xmlns="http://www.w3.org/2000/svg"><path d="M31.47 38.238h-4.36l-13.579.016c-.323 0-.647.006-.97 0-.15-.005-.2.049-.2.206.012 1.987.087 3.981.006 5.964-.075 1.745-1.148 3.02-2.899 3.441-1.342.324-2.603.097-3.691-.805-.803-.665-1.25-1.545-1.277-2.577-.049-1.96-.033-3.922-.027-5.889 0-.27-.054-.361-.334-.34a4.63 4.63 0 01-1.364-.092c-.916-.216-1.573-1.053-1.595-1.993-.021-.827.226-1.518.91-2.015.168-.125.357-.222.556-.265.2-.043.22-.146.22-.319-.005-2.323.012-4.646-.01-6.969-.01-1.118.323-2.14.76-3.139.894-2.047 2.155-3.846 3.74-5.418a7.1 7.1 0 011.067-.902c.183-.125.156-.211.021-.346-.248-.26-.49-.53-.722-.8-.086-.097-.178-.124-.307-.124-2.048.006-4.096.006-6.143.006C.415 15.872 0 15.462 0 14.592V13.16c.005-.697.431-1.129 1.12-1.134h6.548c.62 0 1.067.41 1.089 1.026.016.524.01 1.043.005 1.567a.58.58 0 00.183.454c.313.318.615.653.911.988.086.098.15.12.27.076.538-.2.522-.195.576-.784.14-1.572.323-3.138.566-4.7.178-1.134.372-2.263.668-3.376a8.566 8.566 0 011.848-3.447C15.401 1.983 17.47.902 19.831.335 20.93.075 22.05 0 23.188 0c5.685.005 11.37-.005 17.055.005 2.856.006 5.46.827 7.712 2.62 1.692 1.346 2.786 3.09 3.254 5.22.372 1.701.63 3.419.836 5.148.102.87.21 1.745.264 2.62.01.21.086.346.318.448.312.135.495.076.695-.178.242-.303.512-.578.781-.854.113-.113.135-.248.135-.394 0-.551-.005-1.097.016-1.648.022-.518.464-.95.986-.95 2.247-.006 4.489-.011 6.736-.006.587 0 1.002.438 1.024 1.064.016.578.016 1.151 0 1.73-.022.658-.496 1.047-1.245 1.047-2.047 0-4.095 0-6.143-.005a.447.447 0 00-.388.178c-.226.27-.469.524-.706.778-.108.113-.124.178.022.292 2.317 1.826 3.955 4.16 5.054 6.882.361.886.555 1.805.545 2.777-.027 2.258-.006 4.522-.011 6.78 0 .184.038.276.231.335 1.326.41 1.725 1.945 1.288 2.993-.404.983-1.174 1.34-2.166 1.356-.232.005-.469.027-.7.016-.2-.01-.26.049-.26.254.012.962.012 1.929.006 2.89-.005 1.016.006 2.037-.021 3.053-.054 1.642-1.31 3.1-2.92 3.43-1.37.281-2.625.065-3.708-.853-.825-.703-1.234-1.632-1.245-2.702a295.446 295.446 0 01-.006-5.78c0-.249-.08-.292-.307-.292-6.278.006-12.556.006-18.828.006-.022-.011-.022-.017-.022-.022zm.027-35.315c0 .005 0 .005 0 0-2.829.005-5.658.005-8.487 0-1.79 0-3.487.362-5.055 1.242-1.632.919-2.802 2.22-3.26 4.079-.356 1.448-.587 2.917-.781 4.392-.183 1.416-.286 2.836-.415 4.257-.016.151-.054.303.22.303 2.587-.011 5.174-.006 7.76-.006.108 0 .21-.016.308-.07.889-.486 1.778-.967 2.667-1.453 2.323-1.259 4.65-2.512 6.973-3.782.264-.146.453-.13.706.006 3.196 1.74 6.397 3.468 9.592 5.202a.687.687 0 00.329.097c2.398-.005 4.796-.005 7.194.006.237 0 .264-.092.248-.281-.076-.886-.135-1.772-.232-2.653-.205-1.918-.474-3.825-.89-5.71-.355-1.61-1.174-2.907-2.5-3.857-1.708-1.227-3.642-1.767-5.728-1.772-2.888-.006-5.771 0-8.649 0zM13.353 28.438c2.053.022 3.891-1.572 3.891-3.895 0-2.28-1.794-3.884-3.95-3.906-2.064-.022-3.912 1.799-3.831 4.041.07 2.107 1.805 3.787 3.89 3.76zm36.261 0c2.075.054 3.988-1.69 3.913-4.035a3.877 3.877 0 00-3.87-3.755c-2.128 0-3.939 1.653-3.912 3.9.027 2.361 1.886 3.9 3.87 3.89zm-17.362-3.387c0 2.82 0 5.635-.006 8.454 0 .217.049.276.264.27.62-.016 1.24-.016 1.86 0 .22.006.264-.07.264-.275-.006-2.01-.006-4.014-.006-6.023 0-3.215 0-6.43.006-9.644 0-.21-.065-.318-.248-.416a79.447 79.447 0 01-1.892-1.02c-.183-.103-.248-.109-.248.145.011 2.842.006 5.672.006 8.509zm-1.515-8.471c-.743.4-1.438.783-2.144 1.15-.173.092-.237.19-.237.39.01 1.869.005 3.738.005 5.607 0 3.258 0 6.515-.005 9.773 0 .21.043.276.264.27a28.744 28.744 0 011.805 0c.275.011.318-.086.318-.335-.005-5.505-.005-11.015-.005-16.52v-.335zm5.438 9.53c0 2.463.005 4.932-.006 7.395 0 .217.06.276.27.27a32.54 32.54 0 011.778 0c.27.011.356-.048.356-.345-.011-4.479-.011-8.963 0-13.441 0-.233-.076-.351-.275-.454-.62-.319-1.234-.66-1.848-.989-.275-.145-.275-.15-.275.168v7.396zm-9.355-7.412c-.728.394-1.412.777-2.113 1.134-.215.108-.285.227-.285.47.01 4.37.005 8.747.005 13.117 0 .054.006.108 0 .162-.016.14.033.19.178.19a126.04 126.04 0 012.02 0c.163 0 .2-.06.195-.206-.006-.486-.006-.972-.006-1.459.011-2.723-.005-5.45.011-8.174.006-1.296 0-2.587-.01-3.884 0-.437.005-.875.005-1.35zm13.294 1.831c-.005.086-.01.13-.01.178v6.72c0 2.027.005 4.053-.006 6.073 0 .21.054.276.27.27.63-.016 1.255-.01 1.885 0 .194.006.237-.065.237-.243-.01-.956-.005-1.907-.005-2.863 0-2.972 0-5.937.005-8.909 0-.194-.043-.286-.248-.259-.242.032-.447-.054-.657-.173-.474-.27-.96-.518-1.471-.794zm-17.25.351c-.08-.016-.14.038-.199.07-.609.39-1.245.665-1.994.551-.215-.032-.161.136-.161.254 0 3.917 0 7.828-.006 11.745 0 .232.076.281.291.276a33.536 33.536 0 011.805 0c.238.005.302-.054.302-.298-.01-4.1-.005-8.206-.005-12.306-.01-.097.016-.2-.032-.292z" fill="#DF5151"/></svg><svg viewBox="0 0 512 512" id="checked" xmlns="http://www.w3.org/2000/svg"><path d="M497.36 69.995c-7.532-7.545-19.753-7.558-27.285-.032L238.582 300.845l-83.522-90.713c-7.217-7.834-19.419-8.342-27.266-1.126-7.841 7.217-8.343 19.425-1.126 27.266l97.126 105.481a19.273 19.273 0 0013.784 6.22c.141.006.277.006.412.006a19.317 19.317 0 0013.623-5.628L497.322 97.286c7.551-7.525 7.564-19.746.038-27.291z" fill="currentColor"/><path d="M492.703 236.703c-10.658 0-19.296 8.638-19.296 19.297 0 119.883-97.524 217.407-217.407 217.407-119.876 0-217.407-97.524-217.407-217.407 0-119.876 97.531-217.407 217.407-217.407 10.658 0 19.297-8.638 19.297-19.296C275.297 8.638 266.658 0 256 0 114.84 0 0 114.84 0 256c0 141.154 114.84 256 256 256 141.154 0 256-114.846 256-256 0-10.658-8.638-19.297-19.297-19.297z" fill="currentColor"/></svg><svg fill="none" viewBox="0 0 14 25" id="facebook" xmlns="http://www.w3.org/2000/svg"><path d="M8.826 24.413V13.68h3.603l.54-4.183H8.825V6.826c0-1.211.337-2.037 2.073-2.037h2.215V1.046C12.73.996 11.415.882 9.886.882c-3.194 0-5.38 1.949-5.38 5.529v3.085H.895v4.183h3.612v10.733h4.32z" fill="currentColor"/></svg><svg fill="none" viewBox="0 0 20 16" id="filter" xmlns="http://www.w3.org/2000/svg"><path d="M0 3.5A1.5 1.5 0 011.5 2h8.837a3.5 3.5 0 016.326 0H18.5a1.5 1.5 0 010 3h-1.837a3.5 3.5 0 01-6.326 0H1.5A1.5 1.5 0 010 3.5zm20 9a1.5 1.5 0 00-1.5-1.5H9.663a3.5 3.5 0 00-6.326 0H1.5a1.5 1.5 0 000 3h1.837a3.5 3.5 0 006.326 0H18.5a1.5 1.5 0 001.5-1.5z" fill="#00002E" fill-opacity=".28"/></svg><svg fill="none" viewBox="0 0 109 38" id="logo" xmlns="http://www.w3.org/2000/svg"><g clip-path="url(#gclip0)"><path d="M1.742 35.034V37.2c0 .103.026.18.078.232a.51.51 0 00.234.129v.155H0v-.155c.104-.026.208-.078.234-.13.052-.05.078-.128.078-.231v-5.52c0-.103-.026-.18-.078-.232a.504.504 0 00-.234-.13v-.154h4.107c.494 0 .91.026 1.196.077.286.052.546.155.78.31.26.155.442.387.572.67.13.285.182.568.182.878 0 1.058-.598 1.677-1.794 1.883l1.274 1.806c.234.31.39.516.494.62.104.102.234.128.39.154v.155H4.809v-.155c.156-.026.234-.078.234-.18 0-.052-.078-.207-.234-.413l-1.326-1.935H1.742zm0-1.084h2.21c.337 0 .571 0 .701-.026.13-.025.26-.051.364-.129.234-.129.364-.36.364-.696 0-.335-.13-.568-.364-.697a1.51 1.51 0 00-.364-.129c-.13-.025-.364-.025-.702-.025h-2.21v1.702zm11.438.877v1.78h4.237c.104 0 .182-.026.234-.077a.498.498 0 00.13-.232h.156v1.676h-.156c-.026-.103-.078-.206-.13-.232-.052-.051-.13-.077-.234-.077h-5.979v-.155c.104-.026.208-.077.234-.129.052-.051.078-.129.078-.232v-5.52c0-.104-.026-.181-.078-.233a.504.504 0 00-.234-.129v-.155h5.875c.104 0 .182-.025.234-.077a.498.498 0 00.13-.232h.156v1.677h-.156a.498.498 0 00-.13-.233c-.052-.051-.13-.077-.234-.077H13.18v1.548h2.677c.104 0 .182-.026.234-.078a.498.498 0 00.13-.232h.156v1.651h-.156a.498.498 0 00-.13-.232c-.052-.051-.13-.077-.234-.077H13.18v.077zm12.686-2.579V37.2c0 .103.026.18.078.232.052.052.13.103.234.129v.155h-2.054v-.155c.104-.026.208-.077.234-.129.052-.052.078-.129.078-.232v-4.953h-2.054c-.104 0-.182.025-.234.077a.499.499 0 00-.13.232h-.156V30.88h.156c.026.13.078.207.13.233.052.051.13.077.208.077h5.511c.104 0 .182-.026.234-.077a.497.497 0 00.13-.233h.156v1.677h-.156c-.026-.129-.078-.206-.13-.232-.052-.052-.13-.077-.234-.077h-2.001zm50.899 0V37.2c0 .103.026.18.078.232.052.052.13.103.234.129v.155h-2.053v-.155c.104-.026.208-.077.234-.129.052-.052.078-.129.078-.232v-4.953h-2.054c-.104 0-.182.025-.234.077a.498.498 0 00-.13.232h-.13V30.88h.156c.026.13.078.207.13.233.052.051.13.077.208.077h5.511c.104 0 .182-.026.234-.077a.498.498 0 00.13-.233h.156v1.677h-.156c-.026-.129-.078-.206-.13-.232-.052-.052-.13-.077-.234-.077h-2.028zm-42.503 2.786V37.2c0 .103.026.18.078.232a.51.51 0 00.234.129v.155h-2.053v-.155c.104-.026.208-.078.234-.13.052-.05.078-.128.078-.231v-5.52c0-.103-.026-.18-.078-.232a.504.504 0 00-.234-.13v-.154h4.133c.494 0 .91.026 1.196.077.286.052.546.155.78.31.26.155.441.387.572.67.13.285.181.568.181.878 0 1.058-.597 1.677-1.793 1.883l1.274 1.806c.233.31.39.516.494.62.104.102.234.128.39.154v.155h-2.392v-.155c.156-.026.234-.078.234-.18 0-.052-.078-.207-.234-.413l-1.326-1.935h-1.768zm0-1.084h2.21c.338 0 .572 0 .702-.026.13-.025.26-.051.364-.129.234-.129.364-.36.364-.696 0-.335-.13-.568-.364-.697a1.512 1.512 0 00-.364-.129c-.13-.025-.364-.025-.702-.025h-2.21v1.702zm13.206-2.915c1.144 0 2.054.31 2.73.929.702.645 1.066 1.47 1.066 2.502a3.29 3.29 0 01-.52 1.755c-.676 1.057-1.768 1.599-3.276 1.599-1.144 0-2.054-.31-2.73-.929a3.506 3.506 0 01-.831-1.186 3.55 3.55 0 01-.234-1.29c0-.645.156-1.264.494-1.806.676-1.006 1.767-1.548 3.301-1.574zm0 1.11c-.624 0-1.144.18-1.56.567-.494.439-.754 1.006-.754 1.728 0 .697.26 1.29.754 1.729.416.361.936.567 1.586.567.624 0 1.17-.18 1.586-.567.26-.232.442-.49.572-.8.104-.284.182-.567.182-.877 0-.748-.26-1.316-.754-1.754-.442-.387-.988-.568-1.612-.593zm38.734 1.753S88.1 31.68 88.1 31.602c0-.129-.104-.232-.313-.258v-.155h2.262v.155c-.13.026-.234.052-.286.13-.052.05-2.755 3.508-2.755 3.508s-.052 2.27-.052 2.322c0 .154.104.258.312.283v.155h-2.132v-.155c.208-.026.312-.129.312-.284V34.93s-2.704-3.405-2.756-3.457a.589.589 0 00-.286-.129v-.155h2.34v.155c-.208.052-.312.13-.312.258-.052.078 1.768 2.296 1.768 2.296zm18.067.929v1.78h4.237c.104 0 .182-.026.234-.077a.498.498 0 00.13-.232h.156v1.676h-.156c-.026-.103-.078-.206-.13-.232-.052-.051-.13-.077-.234-.077h-5.979v-.155c.104-.026.208-.077.234-.129.052-.051.078-.129.078-.232v-5.52c0-.104-.026-.181-.078-.233a.504.504 0 00-.234-.129v-.155h5.875c.104 0 .182-.025.234-.077a.498.498 0 00.13-.232h.156v1.677h-.156a.498.498 0 00-.13-.233c-.052-.051-.13-.077-.234-.077h-4.107v1.548h2.677c.104 0 .182-.026.234-.078a.498.498 0 00.13-.232h.156v1.651h-.156a.498.498 0 00-.13-.232c-.052-.051-.13-.077-.234-.077h-2.703v.077zm-10.009 1.78h4.056c.104 0 .182-.026.234-.077a.498.498 0 00.13-.232h.156v1.676h-.156c-.026-.103-.078-.206-.13-.232-.052-.051-.13-.077-.234-.077h-5.797v-.155c.104-.026.208-.077.234-.129.052-.051.078-.129.078-.232v-5.52c0-.104-.026-.181-.078-.233a.504.504 0 00-.234-.129v-.155h2.053v.155c-.104.026-.208.078-.234.13-.052.05-.078.128-.078.231v4.98zm-25.19-4.901l-.78 1.548-.13-.078V33.1c0-.103-.103-.232-.285-.361-.572-.387-1.248-.593-2.028-.593-.338 0-.65.051-.91.128a1.09 1.09 0 00-.468.284.548.548 0 00-.182.413c0 .258.156.413.442.49.156.052.494.103.988.155l.754.077c.442.052.806.103 1.092.207.286.077.52.206.728.36.208.156.39.362.52.62s.182.516.182.826c0 .464-.156.877-.442 1.212-.26.335-.702.568-1.248.722-.416.13-.884.181-1.378.181a5.725 5.725 0 01-2.573-.62c-.182-.077-.286-.128-.312-.128-.052 0-.104.026-.208.103l-.13-.077.702-1.6.13.078v.051c0 .155.078.284.208.387.207.18.52.335.961.49.442.13.858.207 1.248.207.416 0 .78-.078 1.092-.207.156-.077.312-.18.39-.31a.63.63 0 00.156-.412c0-.206-.13-.361-.364-.464-.156-.052-.494-.13-.988-.181l-.754-.077c-.494-.052-.858-.104-1.066-.155a3.06 3.06 0 01-.623-.232 1.862 1.862 0 01-.702-.645 1.732 1.732 0 01-.234-.903c0-.542.182-1.006.572-1.367.493-.465 1.247-.723 2.261-.723.416 0 .806.052 1.17.13.364.076.806.231 1.352.463.182.078.312.104.338.104a.318.318 0 00.234-.104l.286.078z" fill="#14235A"/><path d="M44.27 6.063c-21.628 1.264-20.822 1.16-21.55 1.393-.026 0-.026 0-.052.025-.91.31-1.456.903-1.767 1.342 2.573-.026 12.607-.155 22.512-.232.286-1.006.546-1.832.858-2.528zM22.642 17.026c-.754 0-1.377.62-1.377 1.368 0 .748.623 1.367 1.377 1.367s1.378-.62 1.378-1.367c0-.748-.624-1.368-1.378-1.368zM12.66 18.6a.343.343 0 00-.338-.335h-1.066c-.468 0-.468.697 0 .697h1.066c.182 0 .338-.155.338-.361zM64.287 7.56H51.68c-.181.18-.494.49-.857.928 5.9-.052 10.996-.078 13.387-.052.052-.335.052-.619.078-.877zm30.909 9.002c-.312-1.057-.91-1.444-1.534-2.09-2.21-2.295-7.33-3.611-12.114-4.333 4.524 1.238 9.593 3.43 13.648 6.423z" fill="#DF5151"/><path d="M49.912 8.513c.468-.67 4.887-5.366 4.887-5.366.728-.774 1.456-1.057 2.626-1.057h8.084c-.182 1.754-.702 7.017-.624 6.423.26-.051 9.099-.129 15.78.774 4.965.67 8.812 1.78 11.542 3.302C83.29 1.78 70.344 0 62.832 0c-1.924 0-4.446.206-5.642.335-1.351.13-2.599.8-3.56 1.755l-3.614 3.585a.388.388 0 01-.234.104c-.078 0-1.456.025-4.653.232-.338.67-.624 1.522-.91 2.554a430.56 430.56 0 015.693-.052zm24.02-1.47c.052.103.026.232-.026.335a.372.372 0 01-.312.155h-7.487l.468-5.443c.598.051 1.404.18 2.288.464 2.287.748 4.107 2.244 5.069 4.489z" fill="#DF5151"/><path d="M87.865 19.451c-.727 0-1.3-.567-1.3-1.29 0-.722.573-1.29 1.3-1.29h6.525c-5.043-3.585-11.724-6.165-16.637-6.759-5.979-.722-11.62 1.058-12.374 6.372-.416 2.838 1.196 3.767 2.002 4.025v-1.213c0-4.385 3.613-7.868 7.929-7.868 4.445 0 7.954 3.56 7.954 7.868v1.265l13.934-.052c-.13-.284-.26-.8-.39-1.084h-8.943v.026z" fill="#DF5151"/><path d="M74.946 12.176c-3.302.181-5.953 2.89-5.953 6.218 0 3.43 2.807 6.243 6.29 6.243 3.458 0 6.291-2.786 6.291-6.243 0-3.483-2.937-6.398-6.628-6.218zm.338 11.093c-2.704 0-4.914-2.192-4.914-4.875s2.21-4.876 4.914-4.876c2.703 0 4.913 2.193 4.913 4.876 0 2.683-2.21 4.875-4.913 4.875zm22.252-5.675h-9.67a.547.547 0 00-.546.541c0 .31.26.542.546.542h9.67a.547.547 0 00.546-.541.547.547 0 00-.546-.542z" fill="#DF5151"/><path d="M75.284 17.026c-.754 0-1.378.62-1.378 1.368 0 .748.624 1.367 1.378 1.367.753 0 1.377-.62 1.377-1.367 0-.748-.624-1.368-1.377-1.368zm-10.659-.644c.546-3.896 3.64-6.45 8.37-7.017-2.443-.104-4.6-.13-6.212-.155-1.716-.026-1.534-.026-1.872-.026-.234 2.193-.676 5.34-.936 7.327-.39 3.095-3.223 3.121-4.523 3.198-1.56.078-1.404.155-4.835.026-3.38-.129-4.94-.438-5.901-2.063-.806-1.368-.832-3.586-.052-6.579a7.33 7.33 0 01.754-1.832c-1.768.026-3.588.026-5.433.052-.494 1.986-1.066 4.721-3.848 4.644-.598-.026-1.975-.258-4.107-.697 3.067 1.703 6.94 4.386 8.605 7.456l21.394-.078c-.858-.67-1.742-1.935-1.404-4.256zm-42.113-4.154c-.728 0-1.404.103-2.053.31-2.392.877-4.108 3.173-4.108 5.856 0 3.43 2.808 6.243 6.291 6.243 3.458 0 6.291-2.786 6.291-6.243 0-1.497-.52-2.864-1.404-3.922a6.719 6.719 0 00-5.017-2.244zm.13 11.041c-2.703 0-4.913-2.192-4.913-4.875s2.21-4.876 4.913-4.876c2.704 0 4.913 2.193 4.913 4.876 0 2.683-2.21 4.875-4.913 4.875z" fill="#DF5151"/><path d="M27.035 10.242c-1.923-.516-4.263-.826-6.238-.645-3.302.335-6.89 3.044-8.32 7.945.52.078.937.542.937 1.058 0 .593-.494 1.084-1.092 1.084h-.286a7.49 7.49 0 00-.104 1.135h3.327v-2.322c0-3.07 2.08-5.675 4.966-6.604a6.958 6.958 0 012.443-.439c2.21 0 4.16 1.006 5.46 2.58 1.04 1.212 1.69 2.76 1.69 4.463v2.27l14.063-.051c-2.964-4.876-12.088-9.21-16.846-10.474zm22.383 1.032c-.91 3.457-.52 5.185-.026 6.01.728 1.213 1.82 1.574 5.277 1.703 2.964.103 2.808.078 4.887-.026 1.768-.077 3.432-.541 3.744-2.63.442-2.864.701-4.98.857-7.147-2.495-.026-7.772.026-13.855.078a7.598 7.598 0 00-.884 2.012zm10.84-.723a.87.87 0 01.806.568h1.196c.156 0 .286.129.286.284 0 .154-.13.284-.286.284h-1.196c-.104.335-.442.567-.806.567a.862.862 0 01-.858-.851c.026-.49.39-.852.858-.852zm-20.043 2.657c2.028.052 2.574-1.909 3.042-3.895-5.927.052-11.88.129-16.221.18 2.131.542 4.6 1.523 6.602 2.503 3.51.748 5.797 1.187 6.577 1.212zm1.898-3.173l-1.274 2.374a2.29 2.29 0 01-.416.051h-.078c-.078 0-.208 0-.364-.026l1.274-2.373c.286 0 .572-.026.858-.026zm-1.794.026l-1.222 2.245c-.233-.026-.493-.078-.78-.13l1.145-2.09c.26-.025.571-.025.857-.025zm-1.793.026l-1.04 1.909a20.985 20.985 0 00-.78-.155l.962-1.754h.858zm-2.678.026h.858l-.858 1.573a20.81 20.81 0 00-.78-.154l.78-1.42zm-3.041.619l-.702-.31.156-.284h.857l-.311.594zm1.247-.593h.858l-.65 1.212a4.288 4.288 0 01-.286-.077c-.13-.078-.286-.13-.416-.207l.494-.928zm22.643-3.225c0-.052-.026-.078-.026-.13l-1.092-2.321c-.13-.258-.442-.387-.702-.258-.26.129-.39.438-.26.696l.936 1.987h1.144v.026z" fill="#DF5151"/></g><defs><clipPath id="gclip0"><path fill="#fff" d="M0 0h109v38H0z"/></clipPath></defs></svg><svg viewBox="0 0 68 68" fill="none" id="moto" xmlns="http://www.w3.org/2000/svg"><path d="M13.874 34.996c-6.385 0-11.562 5.176-11.562 11.561 0 6.386 5.177 11.562 11.562 11.562 6.386 0 11.562-5.176 11.562-11.562-.01-6.38-5.18-11.552-11.562-11.561zm0 20.811a9.249 9.249 0 01-9.25-9.25 9.25 9.25 0 019.25-9.249 9.25 9.25 0 019.25 9.25 9.262 9.262 0 01-9.25 9.249z" fill="#DF5151"/><path d="M18.5 46.558a4.625 4.625 0 11-9.25 0 4.625 4.625 0 019.25 0z" fill="#DF5151"/><path d="M60.122 34.995a11.32 11.32 0 00-3.977.705l-1.006-2.08a13.845 13.845 0 0111.92.924 1.156 1.156 0 001.157-2.002 16.14 16.14 0 00-14.068-1.004v-.008h-.011l-1.885-3.942a10.84 10.84 0 003.245.47c.639 0 1.157-.518 1.157-1.156v-9.25c0-.638-.518-1.156-1.157-1.156a8.904 8.904 0 00-7.133 3.006l-2.232-4.659a1.148 1.148 0 00-1.04-.66h-6.938a1.156 1.156 0 000 2.313h6.21l1.664 3.469h-9.434a7.692 7.692 0 00-7.689 7.688 3.886 3.886 0 003.873 3.874h18.8l.485.994v.013c-.675.388-1.323.824-1.936 1.305H32.784a6.2 6.2 0 01-6.191-6.186c0-1.04.162-2.074.483-3.063h-16.67a4.625 4.625 0 00-4.625 4.624 2.323 2.323 0 002.116 2.301h.019A16.02 16.02 0 003.91 33.81a1.156 1.156 0 001.43 1.817 13.762 13.762 0 019.48-2.911c7.386.63 13.03 6.86 12.929 14.272v.727a3.393 3.393 0 003.469 3.468h11.561a3.401 3.401 0 003.469-3.468v-1.157a13.838 13.838 0 016.821-11.934l1.006 2.081a11.562 11.562 0 106.047-1.709zM43.936 46.557h-6.938a1.156 1.156 0 010-2.312h7.1s-.162 1.406-.162 2.312zm16.186 9.25a9.248 9.248 0 01-5.04-16.996l2.034 4.243a4.548 4.548 0 00-1.618 3.503 4.624 4.624 0 104.624-4.625 4.964 4.964 0 00-.936.093l-2.035-4.22c.955-.331 1.96-.5 2.971-.497a9.25 9.25 0 110 18.499z" fill="#DF5151"/></svg><svg fill="none" viewBox="0 0 44 40" id="restoration-1" xmlns="http://www.w3.org/2000/svg"><g clip-path="url(#iclip0)" fill="#DF5151"><path d="M44 16.019c-.036.143-.072.286-.112.425a2.533 2.533 0 01-.657 1.079c-2.508 2.484-5.02 4.968-7.53 7.452-.13.13-.188.094-.296-.014-1.96-1.938-3.92-3.871-5.884-5.8-.576-.564-1.17-1.11-1.749-1.67-.09-.09-.189-.102-.301-.102-1.488 0-2.976.004-4.468 0a.493.493 0 00-.36.138c-.675.636-1.353 1.267-2.027 1.898-.994.927-2.24.953-3.278.072-.921-.784-.948-2.444-.009-3.254.967-.837 1.87-1.741 2.779-2.636.52-.52 1.132-.766 1.87-.766 2.76.01 5.52-.004 8.284.014a.95.95 0 00.738-.3c1.757-1.75 3.524-3.487 5.286-5.228.126-.125.184-.12.31 0 2.185 2.166 4.37 4.328 6.568 6.485.454.448.72.976.84 1.59-.004.2-.004.411-.004.617z"/><path d="M16.525 21.135c-.427.255-.742.591-1.065.927-.122.125-.185.13-.31.004-.967-.967-1.943-1.92-2.909-2.887-.112-.112-.211-.143-.369-.112-3.555.685-6.657-.192-9.188-2.784C.697 14.252-.157 11.758.032 8.925a9.107 9.107 0 01.719-2.98c.018-.05.045-.095.094-.202.553.568 1.075 1.119 1.614 1.656 1.182 1.173 2.36 2.35 3.556 3.51 1.973 1.91 5.282 1.002 5.943-1.643.323-1.298-.032-2.435-.976-3.375-1.64-1.634-3.295-3.254-4.94-4.879C5.849.82 5.849.82 6.105.717c5.7-2.252 11.989 1.096 13.234 6.986a9.315 9.315 0 01-.058 4.123.515.515 0 01-.153.255c-.45.43-.895.86-1.33 1.298-.5.501-1.021.984-1.56 1.445a4.005 4.005 0 00.13 6.181c.04.032.085.072.157.13zm8.509-1.983c.44 0 .881.004 1.326-.005.126 0 .22.032.315.126 4.09 4.05 8.19 8.087 12.272 12.147 1.398 1.387 1.852 3.084 1.304 4.968-.544 1.867-1.839 3.044-3.745 3.473-1.703.385-3.245-.026-4.535-1.204-.935-.854-1.817-1.776-2.725-2.663-.094-.09-.09-.147-.009-.233.13-.143.252-.295.383-.438 1.505-1.755 1.146-4.274-.8-5.537-.113-.071-.18-.138-.176-.295.036-1.584-.827-2.9-2.297-3.505-.17-.071-.252-.147-.274-.344-.23-1.889-2.073-3.348-3.979-3.156-.166.018-.27-.009-.36-.17a3.06 3.06 0 00-.7-.837c-.063-.053-.117-.094-.005-.16.832-.507 1.461-1.25 2.171-1.894.216-.192.414-.3.71-.277.378.026.751.004 1.124.004z"/><path d="M23.448 33.671c-.248.117-.446.206-.643.296-.773.344-1.623.188-2.194-.394-.576-.586-.701-1.428-.337-2.193.085-.18.175-.354.287-.586-.265.125-.476.232-.692.322-1.133.483-2.391-.152-2.657-1.343a1.841 1.841 0 01.176-1.28l.283-.564c-.238.116-.418.201-.598.286-.894.417-1.87.184-2.427-.573-.558-.751-.495-1.772.193-2.475a91.194 91.194 0 012.391-2.358c.63-.596 1.592-.667 2.329-.21.76.47 1.079 1.302.823 2.166-.086.286-.176.568-.234.877.18-.18.36-.358.544-.533.252-.241.485-.506.809-.662a1.965 1.965 0 012.32.434c.58.645.651 1.571.175 2.318-.121.188-.252.367-.396.582.225-.031.4-.116.585-.179.665-.241 1.299-.174 1.879.233.867.609 1.052 1.8.422 2.654-.13.18-.278.345-.436.542.355-.014.67-.085.99-.045 1.433.17 2.197 1.795 1.343 2.95a25.185 25.185 0 01-2.13 2.501c-.666.694-1.718.757-2.482.21-.773-.55-1.02-1.53-.602-2.407.08-.166.166-.34.279-.569z"/></g><defs><clipPath id="iclip0"><path fill="#fff" d="M0 0h44v40H0z"/></clipPath></defs></svg><svg fill="none" viewBox="0 0 33 33" id="restoration-10" xmlns="http://www.w3.org/2000/svg"><g clip-path="url(#jclip0)" fill="#DF5151"><path d="M22.36 33c.253-.632.253-1.316.253-1.982l.054-25.58c0-1.473.451-1.912 1.894-1.894 1.28.018 1.749.474 1.749 1.79.018 3.877.018 7.771.018 11.649v14.192c0 .615-.018 1.229-.18 1.825H22.36zM4.996 13.456c0 3.632-.018 7.246 0 10.877 0 .913-.162 1.772-1.1 2.106-1.064.386-2.2.473-3.192-.21-.65-.44-.721-1.159-.703-1.896C.019 18 0 11.65 0 5.316 0 4.228-.017 3.158 0 2.07.037.702.758.018 2.129 0h.45c1.75 0 2.417.632 2.417 2.316v11.14zM33 13.28v10.966c0 .877-.072 1.754-1.01 2.158-1.028.438-2.11.456-3.12-.088-.775-.421-.865-1.193-.865-1.983V5.403c0-1.052-.018-2.105 0-3.157C28.04.632 28.708 0 30.33 0 32.441 0 33 .526 33 2.579v10.702zm-17.456.123v7.807c0 1.65-1.19 2.404-2.795 1.772-.685-.263-.865-.842-.865-1.49V5.456c0-1.649 1.226-2.421 2.795-1.772.721.298.865.895.865 1.58-.018 2.7 0 5.42 0 8.14zm-5.374-.053v7.896c0 1.596-1.478 2.456-2.939 1.684-.631-.333-.74-.93-.74-1.58.019-4.42 0-8.824 0-13.245 0-1.017-.017-2.052 0-3.07.019-1.052.56-1.491 1.768-1.509 1.28-.017 1.875.421 1.875 1.492.037 2.79.018 5.561.037 8.333-.018 0-.018 0 0 0zm7.25-.052v-8.07c0-1.245.45-1.666 1.749-1.684 1.352-.018 1.875.421 1.875 1.65.018 5.403.018 10.806 0 16.21 0 1.263-.487 1.684-1.767 1.684-1.443 0-1.857-.386-1.857-1.737v-8.053z"/></g><defs><clipPath id="jclip0"><path fill="#fff" d="M0 0h33v33H0z"/></clipPath></defs></svg><svg fill="none" viewBox="0 0 35 33" id="restoration-11" xmlns="http://www.w3.org/2000/svg"><g clip-path="url(#kclip0)" fill="#DF5151"><path d="M21.5 27.5c-3.576 0-7.42.496-11 .5 0-.5.277-1.47.297-1.68.136-1.583-1.157-3.03-2.719-3.03-.222 0-1.52.335-1.578.113C5.195 18.533 4.313 14.367 3 9.5c-.55-2.043-2.443-4.961-3-7-.043-.153 2.107-.41 2.275-.417.934-.036 1.854.02 2.73.407.787.346 1.332.918 1.62 1.768 1.566 4.581 3.136 9.158 4.705 13.739.596 1.736 1.192 3.472 1.784 5.213.055.157.125.193.28.193 5.348-.004 10.696.004 16.044-.012 1.149-.004 1.975.5 2.559 1.487.284.475.483.99.674 1.515.05.145.458 1.607.329 1.607-.67-.004-1.83 0-2.5 0-2.937 0-6.067-.5-9-.5z"/><path d="M21.55 29.765c-3.688 0-7.372 0-11.06-.004a.83.83 0 00-.457.125c-2.43 1.446-5.581-.13-5.994-2.998-.35-2.441-.794-4.867-1.196-7.296-.428-2.602-.864-5.205-1.3-7.812C1.097 9.117.646 6.458.202 3.795c-.07-.383-.125-.77-.195-1.152-.02-.109.015-.137.101-.17.409-.132.83-.217 1.25-.302.144-.028.199.02.238.166.56 2.119 1.13 4.226 1.698 6.337 1.301 4.843 2.602 9.685 3.907 14.524.043.153.027.217-.129.278-1.13.447-1.87 1.636-1.772 2.824.113 1.374.954 2.401 2.2 2.68 1.235.273 2.52-.404 3.039-1.616.07-.162.144-.222.323-.222 7.276.004 14.552.004 21.827 0 .168 0 .222.056.257.21.133.543.324 1.075.39 1.64.066.543-.133.773-.67.773H21.55z"/><path d="M21 32.994c-3.586 0-7.173-.006-10.759.006-.202 0-.245-.085-.24-.382.01-1.09.01-2.182 0-3.273-.005-.29.058-.345.229-.345 1.328.012 2.653.006 3.982.006h17.364c.42 0 .42 0 .42.667 0 .988-.008 1.982.004 2.97.004.303-.058.357-.237.357-3.59-.012-7.177-.006-10.763-.006zm4.196-28.961c.289.016.69.044 1.087.104.086.013.662-.197.717-.137 1.297 1.475 2.7 2.53 4 4 .055.064-.55.803-.541.887.14 2.083-.34 4.005-1.395 5.778-.074.129-.113.117-.202.012-2.723-3.098-5.45-6.197-8.176-9.295-.023-.024-.039-.052-.066-.076-.117-.097-.074-.145.039-.206a9.027 9.027 0 014.537-1.067z"/><path d="M27.296 2.655a.63.63 0 01.417.222c.186.205.37.415.549.624.07.08.117.097.198.012.203-.205.417-.403.627-.604.246-.234.53-.218.752.04.3.343.3.343.616.036 1.008-.97 2.017-1.937 3.018-2.912.11-.105.16-.097.253.016.394.463.795.922 1.204 1.37.105.116.082.165-.016.261-1.067 1.02-2.13 2.047-3.201 3.062-.121.113-.121.173-.008.29.471.52.463.653-.043 1.144-.14.137-.276.283-.428.411-.11.093-.098.154-.004.25.179.186.35.379.522.572.268.302.257.758-.02 1.012-.273.25-.69.217-.958-.09-1.328-1.51-2.652-3.02-3.98-4.527a.734.734 0 01-.211-.565c.027-.35.308-.624.713-.624zm2.714 11.92c0 .278-.149.52-.39.62a.62.62 0 01-.744-.177c-1.083-1.225-2.162-2.45-3.24-3.674-1.804-2.051-3.611-4.098-5.415-6.148-.304-.343-.292-.79.02-1.048.276-.23.646-.19.907.1l2.127 2.41c2.162 2.458 4.327 4.911 6.489 7.365.144.16.253.326.245.552zm-10.173-6.34a.378.378 0 01-.132.258c-1.928 1.853-3.86 3.706-5.788 5.56-.164.157-.34.169-.46.032-.129-.145-.105-.33.062-.492 1.905-1.829 3.81-3.662 5.714-5.491.074-.073.144-.153.257-.173a.294.294 0 01.347.306zm5.063 5.733c-.003.145-.077.226-.16.306-1.117 1.072-2.235 2.148-3.353 3.22-.534.511-1.067 1.023-1.597 1.534-.117.113-.245.15-.39.065-.128-.077-.159-.206-.128-.35.02-.085.082-.138.137-.19 1.223-1.172 2.442-2.349 3.665-3.521.432-.415.864-.83 1.297-1.25.105-.1.214-.148.354-.084.125.057.164.161.175.27zm-8.849.504c-.156 0-.257-.049-.304-.166a.309.309 0 01.07-.366l.725-.701 3.899-3.76c.039-.035.074-.076.117-.108.14-.113.311-.1.416.028.113.137.113.294-.023.431-.265.266-.541.52-.81.782l-3.844 3.698c-.082.081-.156.166-.246.162zm6.216-3.473c0 .125-.074.21-.16.29-1.082 1.04-2.169 2.079-3.252 3.118l-.798.766c-.167.16-.331.173-.46.036-.128-.137-.109-.318.055-.476l4.07-3.92c.105-.1.218-.173.366-.1.117.056.18.149.18.286zm.106 8.388c-.156.004-.25-.06-.3-.182a.315.315 0 01.078-.366c.198-.194.397-.383.596-.576.985-.943 1.966-1.886 2.952-2.829.027-.028.054-.056.086-.084.144-.121.334-.121.436 0 .101.12.093.33-.035.455-.32.314-.647.62-.97.93-.86.826-1.718 1.652-2.579 2.474-.081.085-.16.182-.264.178zm1.223-6.869c.011.108-.059.185-.137.257-.74.713-1.484 1.427-2.224 2.136-.152.145-.335.145-.448.016-.113-.13-.093-.319.059-.464l1.881-1.808c.129-.125.253-.25.386-.371a.278.278 0 01.323-.053c.113.049.163.146.16.287zM16.842 19a.3.3 0 01-.242-.198c-.054-.145-.004-.257.101-.358l1.138-1.096c.28-.27.56-.54.837-.81.18-.173.37-.197.495-.06.128.14.097.334-.082.508-.646.62-1.293 1.24-1.936 1.86-.081.081-.163.158-.311.154z"/></g><defs><clipPath id="kclip0"><path fill="#fff" d="M0 0h35v33H0z"/></clipPath></defs></svg><svg fill="none" viewBox="0 0 42 32" id="restoration-12" xmlns="http://www.w3.org/2000/svg"><g clip-path="url(#lclip0)" fill="#DF5151"><path d="M17.598 32H.972C.157 32 0 31.83 0 30.952V25.67c0-.645.213-.877.805-.877.491-.01.982-.01 1.482 0 .222 0 .296-.08.296-.323a52.9 52.9 0 010-1.713c.009-.252-.093-.302-.296-.313-.723-.03-.824-.15-.824-.927v-1.41c0-.605.083-1.22-.445-1.694-.24-.212-.277-.615-.277-.978 0-4.374 0-8.748.009-13.122 0-1.089.777-1.945 1.777-1.976.398-.01.796-.01 1.204 0 1.074.01 1.897.847 1.897 2.006.019 4.344.01 8.678 0 13.022 0 .504-.176.957-.49 1.32-.185.212-.24.433-.24.716.018.735.008 1.471 0 2.207 0 .615-.186.836-.732.826-.306-.01-.398.091-.38.424.028.514.019 1.038 0 1.562-.01.292.084.373.343.363.722-.02 1.444-.01 2.166-.01H34.14c.935 0 1.11.191 1.11 1.199V30.9c0 .867-.203 1.079-.971 1.079-5.564.02-11.128.02-16.682.02z"/><path d="M6.85 16.408V5.816c.13-.01.13.12.158.191.268.575.703.887 1.286.897.926.02 1.852 0 2.768.02.352.01.306-.222.306-.453V1.089c0-.131-.01-.273 0-.404.028-.443.268-.715.639-.685.388.04.564.282.564.706 0 1.874.01 3.759-.009 5.634-.01.443.074.665.519.584.138-.02.277-.01.416 0 2.259.161 4.471-.242 6.675-.705.462-.101.934-.192 1.407-.232.324-.02.37-.192.37-.474-.01-1.491 0-2.983 0-4.475 0-.181.01-.373.037-.544.055-.302.25-.464.518-.484.287-.02.5.111.611.423.065.182.056.363.056.545 0 1.461.01 2.912-.01 4.374 0 .302.065.413.37.453 2.287.303 3.398 2.45 3.38 4.294-.065 4.304-.028 8.617-.01 12.92 0 .434-.083.555-.5.555-3.091-.02-6.183-.01-9.284-.01-.13 0-.269.05-.436-.07.445-.797.824-1.633 1.12-2.51.445-1.33.741-2.691.686-4.122a4.963 4.963 0 00-.14-.988c-.25-.998-.879-1.552-1.85-1.552-2.389-.02-4.768-.02-7.156 0-1.13 0-1.907.655-2.49 2.086zm27.476-3.275c0 .736.009 1.35 0 1.965-.019 1.24-.657 1.865-1.778 1.945-1.916.131-2.388-.897-2.351-2.54.065-3.144.019-6.299.019-9.453 0-1.28.648-1.996 1.814-2.006h.046c1.704-.151 2.324.826 2.268 2.439-.065 1.854-.009 3.719-.018 5.584 0 .322.074.524.333.695.444.292.861.635 1.305.947.565.393.907.948.982 1.674.027.322.12.332.37.282.74-.131 1.49-.252 2.23-.343 1.204-.151 2.111.464 2.398 1.603.352 1.37-.796 2.852-2.1 2.68-1.158-.15-2.306-.383-3.463-.564-.444-.07-.639-.312-.62-.806.018-.736-.019-1.472.009-2.207.028-.625-.195-1.059-.685-1.371-.232-.131-.435-.303-.76-.524z"/><path d="M31.947 10.524c0 .727-.099 1.447.049 2.174.098.374-1.577.284-3.055.297-1.627.021-2.464-.02-2.464-.304-.05-1.135.394-2.277-.247-3.412-.197-.36-.838-.7-1.922-1.025-.69-.2-.197-.242 1.232-.249 6.357-.02 6.357-.02 6.357.865.05.547.05 1.1.05 1.655z"/></g><defs><clipPath id="lclip0"><path fill="#fff" d="M0 0h42v32H0z"/></clipPath></defs></svg><svg fill="none" viewBox="0 0 54 54" id="restoration-2" xmlns="http://www.w3.org/2000/svg"><g clip-path="url(#mclip0)" fill="#DF5151"><path d="M34.37 22.83c-.716-.618-1.905-.416-2.652.449-.747.865-.772 2.072-.057 2.69.716.617 1.906.416 2.653-.45.747-.865.772-2.071.056-2.689z"/><path d="M42.02 18.722c-.358-.56-.77-1.093-1.237-1.591l-4.342 5.031a4.4 4.4 0 01-.32 5.319 4.4 4.4 0 01-5.216 1.095l-4.342 5.032c.524.364 1.072.676 1.637.937-.174.267-.4.497-.674.542a1.161 1.161 0 00.383 2.289c.802-.134 1.424-.573 1.889-1.112.261-.303.473-.638.64-.967.63.138 1.27.219 1.91.244-.057.316-.177.618-.413.765a1.16 1.16 0 00-.37 1.599c.34.541 1.256.968 2.268-.205.58-.67.814-1.543.872-2.318a11.063 11.063 0 001.861-.5c.068.313.072.637-.09.863a1.16 1.16 0 101.89 1.347c.736-1.034.638-2.281.318-3.256a10.904 10.904 0 001.527-1.176c.18.262.307.56.245.829a1.16 1.16 0 002.01 1.018c.487-.565.581-2.135-.701-3.625.375-.536.696-1.096.962-1.673.268.174.498.4.543.671a1.16 1.16 0 002.288-.383c-.21-1.253-1.162-2.065-2.078-2.528.137-.63.22-1.27.244-1.91.32.06.622.183.765.412a1.16 1.16 0 001.968-1.229c-.675-1.079-1.868-1.465-2.892-1.54a10.979 10.979 0 00-.5-1.86c.319-.067.643-.07.863.087a1.16 1.16 0 101.347-1.888c-1.034-.737-2.281-.639-3.255-.319zm-1.738-5.372c-5.467-3.4-12.73-2.388-17.044 2.61-4.406 5.107-4.161 12.443-.09 17.242a.794.794 0 001.207.006l5.286-6.126a4.4 4.4 0 01.32-5.319 4.4 4.4 0 015.215-1.095l5.287-6.125a.794.794 0 00-.181-1.193z"/><path d="M17.725 23.633a15.458 15.458 0 013.757-9.188 15.626 15.626 0 014.57-3.627c-3.109-1.852-7.203-1.266-9.647 1.566L3.602 27.22a3.53 3.53 0 00.365 4.973l5.115 4.414a3.503 3.503 0 002.563.847 3.504 3.504 0 002.41-1.212c1.455-1.687 3.758-2.92 5.909-3.5a15.726 15.726 0 01-2.24-9.108zm-2.089 8.405c-1.22.697-2.408 1.61-3.337 2.687a1.205 1.205 0 01-1.7.125l-5.116-4.415a1.207 1.207 0 01-.125-1.7l2.754-3.19 7.524 6.493z"/></g><defs><clipPath id="mclip0"><path fill="#fff" transform="rotate(-49.205 31.414 14.384)" d="M0 0h38v38H0z"/></clipPath></defs></svg><svg fill="none" viewBox="0 0 32 25" id="restoration-3" xmlns="http://www.w3.org/2000/svg"><g clip-path="url(#nclip0)"><path d="M7.52 5.104c.04.553-.118 1.152-.433 1.705-.171.31-.066.438.223.587.763.404 1.538.807 2.275 1.245.328.196.447.08.604-.139.618-.864 1.223-1.728 1.854-2.58.763-1.014 2.038-1.36 3.248-.75 1.8.911 3.55 1.89 5.31 2.858 2.67 1.463 5.326 2.938 8.008 4.378 1.656.899 2.024 1.993 1.051 3.48-.473.714-.946 1.428-1.498 2.085-.395.46-.198.622.25.864 1.012.53 2.01 1.082 2.997 1.636.657.368.762.84.355 1.417-.592.852-1.197 1.693-1.814 2.534-.46.634-.973.726-1.723.323-1.065-.588-2.143-1.175-3.195-1.774-.276-.15-.433-.127-.683.057-.776.565-1.92.634-2.761.173-4.523-2.466-9.032-4.942-13.568-7.42-.933-.506-1.354-1.244-1.196-2.188.065-.392-.105-.588-.46-.772A77.865 77.865 0 013.59 11.29C1.276 9.966.434 7.72 1.46 5.472c.158-.357.092-.53-.263-.69a4.493 4.493 0 01-.618-.335c-.54-.334-.763-.864-.447-1.36A47.07 47.07 0 011.986.45c.355-.472.973-.564 1.472-.322 1.42.68 2.853 1.382 3.55 2.788.342.68.565 1.36.513 2.189zm6.68 2.004c-.448.012-.763.162-.895.553-.144.415-.013.76.408 1.003.907.507 1.814 1.002 2.721 1.497a2112.13 2112.13 0 008.967 4.885c.63.346 1.183.242 1.459-.219.276-.449.053-.921-.54-1.244a5542.188 5542.188 0 01-11.332-6.21c-.25-.138-.486-.265-.789-.265zm-8.573-3.34c-.013-.623-1.012-1.775-1.643-1.936-.329-.08-.618 0-.789.265-.17.276-.144.576.158.772.46.3.736.68.92 1.152.105.3.395.472.776.392.394-.081.539-.358.578-.646z" fill="#DF5151"/></g><defs><clipPath id="nclip0"><path fill="#fff" d="M0 0h32v25H0z"/></clipPath></defs></svg><svg fill="none" viewBox="0 0 48 49" id="restoration-4" xmlns="http://www.w3.org/2000/svg"><g clip-path="url(#oclip0)"><path d="M27.552 46.529c-.454.098-.87.304-1.353.297-.97-.01-1.771-.366-2.392-1.119-1.544-1.869-3.053-3.756-4.637-5.591-1.093-1.263-1.145-3.226.348-4.46.537-.443 1.08-.89 1.636-1.31 1.223-.912 2.998-.687 3.974.484.49.593.991 1.188 1.47 1.791.154.2.268.253.477.061.327-.3.67-.583 1.033-.853.205-.16.238-.276.057-.482-.405-.456-.776-.94-1.165-1.4-.157-.178-.141-.28.036-.425.57-.452 1.116-.932 1.68-1.378.206-.16.238-.266.057-.473a77.056 77.056 0 01-1.693-2.05c-.17-.217-.277-.168-.454-.021-.633.532-1.28 1.046-1.908 1.584-.188.156-.292.163-.452-.031-2.343-2.85-4.692-5.694-7.047-8.534-.17-.206-.123-.304.054-.45.631-.511 1.253-1.044 1.888-1.55.211-.164.26-.273.06-.504a67.28 67.28 0 01-1.767-2.139c-.15-.182-.247-.191-.425-.034-.539.465-1.102.9-1.637 1.371-.237.206-.364.172-.542-.056-.333-.427-.694-.84-1.032-1.273-.14-.182-.246-.202-.42-.04-.35.31-.716.612-1.091.902-.188.145-.188.254-.036.425.487.567.94 1.162 1.432 1.723 1.08 1.224 1 3.17-.416 4.328-.708.574-1.338 1.253-2.195 1.634-1.156.51-2.627.173-3.427-.797l-4.796-5.807c-1.116-1.352-.95-3.17.414-4.296.643-.53 1.23-1.154 1.98-1.545 1.332-.695 2.803-.368 3.753.795.47.58.951 1.152 1.421 1.733.136.164.232.184.398.037.362-.319.734-.626 1.121-.926.176-.135.16-.25.024-.405-.375-.441-.737-.904-1.118-1.34-.136-.165-.137-.263.034-.404 1.888-1.55 3.776-3.109 5.654-4.67.177-.145.286-.146.43.041.353.45.734.877 1.082 1.321.154.2.266.215.456.049.35-.31.716-.612 1.092-.902.176-.136.164-.234.028-.399-.481-.571-.957-1.147-1.427-1.728-1.125-1.374-.948-3.18.417-4.328.467-.395.95-.774 1.41-1.164 1.249-1.061 3.22-.899 4.288.443a177.002 177.002 0 004.63 5.596c1.03 1.187 1.101 3.016-.08 4.159-.73.713-1.486 1.445-2.434 1.872-1.249.567-2.637.22-3.5-.826-.486-.588-.977-1.17-1.452-1.757-.145-.177-.248-.24-.445-.058a14.65 14.65 0 01-1.092.902c-.193.15-.171.26-.03.42.366.42.703.863 1.074 1.288.18.207.148.323-.053.489-.547.431-1.075.897-1.622 1.33-.212.164-.266.278-.066.508.6.691 1.172 1.395 1.742 2.11.164.21.278.216.48.04.615-.529 1.261-1.033 1.877-1.56.19-.168.3-.19.48.028 2.334 2.837 4.678 5.676 7.023 8.504.175.212.154.318-.052.478-.647.515-1.275 1.053-1.922 1.567-.2.155-.2.264-.038.447a77.06 77.06 0 011.694 2.051c.154.2.263.199.447.037.55-.475 1.126-.92 1.671-1.39.184-.162.299-.168.453.031.376.48.776.94 1.148 1.415.154.198.268.204.452.042.35-.31.716-.611 1.092-.902.176-.135.164-.234.032-.393-.467-.553-.904-1.131-1.384-1.664-1.107-1.22-1.044-3.2.266-4.282.773-.639 1.454-1.389 2.405-1.788 1.102-.456 2.54-.11 3.291.8 1.607 1.946 3.213 3.891 4.814 5.842.912 1.105.987 2.397.216 3.627-.045.067-.142.117-.11.229l-2.472 2.042c-.11-.049-.194.041-.284.076-1.259.496-2.609.147-3.463-.887-.475-.576-.957-1.147-1.42-1.733-.155-.199-.269-.204-.448-.036-.332.294-.675.577-1.032.853-.2.154-.25.275-.058.482.338.374.64.787.971 1.165.157.177.13.278-.047.424a1174.304 1174.304 0 00-5.653 4.67c-.166.136-.264.137-.398-.038-.328-.421-.68-.823-1.014-1.24-.111-.134-.203-.197-.363-.055a24.37 24.37 0 01-1.151.95c-.176.136-.164.235-.028.4.506.6 1.005 1.205 1.5 1.816.576.71.758 1.519.61 2.422-.082.502-.365.904-.57 1.34a440.48 440.48 0 00-2.46 2.022z" fill="#DF5151"/></g><defs><clipPath id="oclip0"><path fill="#fff" transform="rotate(-39.548 25.482 7.754)" d="M0 0h27.838v38.973H0z"/></clipPath></defs></svg><svg fill="none" viewBox="0 0 33 44" id="restoration-5" xmlns="http://www.w3.org/2000/svg"><g clip-path="url(#pclip0)" fill="#DF5151"><path d="M19.316 29.98c-.617.038-1.342-.075-2.059.103-.925.225-1.578.76-2.022 1.64-.517 1.031-.789 2.118-.943 3.252-.227 1.631-.807 3.121-1.678 4.49-.326.524-.67 1.03-.798 1.658-.136.666.055 1.21.571 1.603.245.187.263.3.118.59-.29.59-.634.778-1.306.637-2.112-.43-4.244-.768-6.366-1.143-.09-.019-.172-.047-.263-.066-1.197-.337-1.514-.984-1.015-2.155 1.215-2.83 2.43-5.66 3.682-8.472.607-1.35-.082-2.568-.907-2.952-.136-.066-.281-.16-.417-.16-.481.01-.508-.28-.49-.665.027-.337-.018-.684.009-1.03.036-.394-.127-.47-.463-.46-.816.01-.852 0-.807.843.028.497-.136.628-.58.582-.408-.038-.816 0-1.224-.029-1.397-.13-2.394-1.33-2.358-2.84.036-1.367 1.152-2.52 2.512-2.576.435-.02.88.009 1.315-.01.29-.018.38.113.344.384v.094c0 .984 0 .975.98.928.245-.01.308-.113.3-.337a4.885 4.885 0 010-.516c.035-1.021.697-1.715 1.686-1.762.272-.01.544.01.816 0 .508-.028.97-.075 1.143.647.108.431.57.637 1.024.637 2.703.01 5.396.01 8.098 0 .58 0 1.007-.337 1.161-.928.082-.3.218-.384.508-.365.408.028.816.019 1.224 0 .254-.01.327.084.336.347.018.852.027.88.87.843.445-.019.771.103 1.061.45.345.412.726.797 1.116 1.153.272.253.326.534.363.9.072.721-.118 1.274-.69 1.696a1.787 1.787 0 00-.317.328c-.517.703-1.16 1.105-2.05.918-.272-.056-.38.075-.362.366.018.337-.01.684.009 1.03.018.272-.09.347-.345.347-.562-.01-1.124 0-1.786 0z"/><path d="M18.191 21.592c-.19.01-.326.028-.453.028-2.385 0-4.761-.018-7.146.019-.48.01-.58-.272-.698-.61-.073-.196.072-.233.2-.29.598-.262 1.187-.534 1.786-.777.263-.104.299-.225.181-.488a21.037 21.037 0 01-.662-1.63c-.09-.263-.236-.3-.48-.272-2.685.328-4.988-1.04-6.058-3.618-1.234-3.008-2.44-6.026-3.682-9.034-.145-.337-.082-.469.245-.61C4.66 2.925 7.89 1.51 11.118.104c.2-.084.39-.244.535.122 1.27 3.158 2.593 6.298 3.818 9.475a5.845 5.845 0 01-1.805 6.663c-.227.187-.29.328-.163.6.245.534.471 1.077.67 1.63.1.263.21.272.436.178.58-.262 1.161-.515 1.741-.768.145-.066.3-.188.408.065.472 1.172.944 2.325 1.433 3.524zM9.068 9.26c1.37 0 2.74-.01 4.117.01.309 0 .354-.076.236-.366a792.67 792.67 0 01-2.63-6.448c-.108-.272-.217-.29-.462-.187a634.698 634.698 0 01-6.865 2.98c-.3.131-.29.253-.181.515.435 1.04.861 2.09 1.27 3.14.108.281.244.365.534.365 1.324-.018 2.657-.009 3.981-.009zm16.786 16.287c2.376-1.424 4.716-2.82 7.037-4.208.127.132.09.244.09.347v7.657c0 .14.119.506-.262.28-2.276-1.34-4.543-2.689-6.865-4.076zm-7.572 5.689c.281-.066.363.094.372.44.054 2.615.77 5.024 2.203 7.188.245.375.118.497-.2.628-.47.197-.87.066-1.296-.459a14.486 14.486 0 01-2.62-4.91c-.137-.441-.218-.91-.363-1.34-.127-.376.009-.638.244-.882.427-.478.998-.609 1.66-.665z"/></g><defs><clipPath id="pclip0"><path fill="#fff" d="M0 0h33v44H0z"/></clipPath></defs></svg><svg fill="none" viewBox="0 0 37 30" id="restoration-6" xmlns="http://www.w3.org/2000/svg"><g clip-path="url(#qclip0)" fill="#DF5151"><path d="M21.394 19.83c.624.664 1.343 1.11 2.099 1.507 2.454 1.28 5.054 1.742 7.74 1.759 1.257.008 2.485.154 3.617.818.872.51 1.51 1.248 1.721 2.358.204 1.062.124 1.175-.82 1.175-11.561 0-23.115 0-34.676.009-.29 0-.392-.073-.385-.414.022-.9.014-1.807 0-2.707-.007-.283.072-.396.327-.445a63.235 63.235 0 005.01-1.256c.523-.154.886-.43 1.148-.98.363-.779.806-1.5 1.198-2.262.124-.243.262-.324.508-.324 3.537.008 7.08 0 10.617.016.364 0 .661-.064.886-.405.218-.332.509-.438.88-.413.58.032 1.161 0 1.735.016.218.008.327-.04.32-.324 0-.34-.146-.802.072-.997.189-.17.58-.016.879-.065.392-.056.457.122.45.519a98.431 98.431 0 000 3.274c.007.3-.073.43-.349.38-.043-.007-.094 0-.145 0-.29-.015-.639.13-.842-.056-.204-.186-.051-.584-.073-.891-.007-.17-.029-.284-.218-.284-.566 0-1.133-.008-1.7-.008z"/><path d="M29.244 21.734c.204-.21.349-.348.48-.502.53-.6.595-1.16.254-1.905-.247-.527-.567-.997-.88-1.475-.703-1.061-1.488-2.05-2.061-3.217-.538-1.094-.821-2.228-.342-3.436.363-.932 1.031-1.548 1.808-2.026 1.199-.729 2.404-1.434 3.61-2.147.85-.503 1.59-.422 2.157.235.617.713.733 1.79.29 2.658-.153.3-.356.543-.581.77-.792.81-.922 1.54-.494 2.65.407 1.053.922 2.042 1.416 3.047.552 1.126.937 2.301.966 3.598.022.98-.065 1.953-.203 2.99-2.005-1.337-4.205-1.086-6.42-1.24zM11 19.779c.16-.187.276-.324.392-.462 2.723-3.152 5.454-6.305 8.177-9.457 1.14-1.321 1.257-3.728.218-5.09-.777-1.02-1.786-1.393-2.963-1.093-1.249.324-1.99 1.872-1.547 3.184.29.867 1.148 1.362 1.932 1.119.494-.154.842-.592.85-1.167 0-.308.109-.397.341-.43.247-.04.501-.097.74-.17.233-.073.284.032.306.268.145 1.482-.9 2.917-2.259 3.079-2.476.3-4.168-2.447-3.137-5.081.857-2.18 3.166-3.088 5.214-2.05 2.084 1.053 3.101 3.63 2.44 6.158-.189.722-.45 1.394-.871 1.978-.16.219-.124.348.05.527.567.583 1.112 1.199 1.678 1.782.16.162.182.252.007.43-.493.494-.958 1.029-1.452 1.523-.182.179-.218.34-.138.592.32 1.045.603 2.099.922 3.144.095.324.044.462-.276.446-.181-.008-.363.024-.544-.008-.574-.098-1.039.08-1.38.616-.087.137-.218.186-.378.186-2.709-.008-5.41-.008-8.119-.008-.036.024-.08.008-.203-.016zM8.961 13.8c-.087 1.467-.675 2.74-1.8 3.696-.545.462-.778 1.118-.887 1.84-.065.437-.116.875-.05 1.328.05.349-.102.6-.414.697-1.38.438-2.782.794-4.19 1.094-.073.017-.168.114-.211-.04-.03-.097-.036-.219.072-.284.03-.024.059-.04.095-.065.879-.486 1.147-1.312 1.053-2.35-.095-1.02-.465-1.84-1.155-2.552C.102 15.745-.312 13.963.232 11.969c.516-1.904 2.077-3.241 3.791-3.436 2.665-.308 5.033 2.075 4.938 5.268zm9.556 13.298c6.014 0 12.02 0 18.033-.015.346 0 .464.136.449.892C36.977 30 36.99 30 36.019 30H3.783c-1.141 0-2.274-.015-3.415 0-.258 0-.354-.151-.331-.68.036-.71-.148-1.648.08-2.1.207-.409.656-.122.994-.122h17.407z"/></g><defs><clipPath id="qclip0"><path fill="#fff" d="M0 0h37v30H0z"/></clipPath></defs></svg><svg fill="none" viewBox="0 0 44 38" id="restoration-7" xmlns="http://www.w3.org/2000/svg"><g clip-path="url(#rclip0)" fill="#DF5151"><path d="M26.076 29.683c-1.508-.028-3.099 1.932-2.54 3.192.474 1.092.195 1.596-.698 2.24-1.09.757-1.899 1.429-3.127.168-.698-.728-3.239.364-3.434 1.457-.224 1.176-.838 1.372-1.843 1.26-1.005-.112-2.233.448-2.54-1.288-.252-1.345-2.737-2.1-3.77-1.177-.837.757-1.451.673-2.205-.055-.726-.7-2.066-.925-1.34-2.52.614-1.345-.922-3.39-2.43-3.25-1.032.113-1.34-.335-1.619-1.203-.446-1.316-.977-2.437.81-3.249.866-.392.586-3.108-.335-3.612C0 21.086-.223 20.47.28 19.434c.447-.98.335-2.324 2.122-2.044 1.284.196 2.596-1.905 2.234-3.193-.14-.448-.67-.952-.168-1.4.782-.7 1.62-1.372 2.596-1.82.112-.056.335.112.447.252.921 1.036 1.954.896 3.127.448.726-.28 1.256-.588 1.312-1.372.084-1.036.698-1.288 1.62-1.176.446.056.92.056 1.395 0 .698-.084.978.28 1.173.868.67 1.932 2.624 2.576 4.244 1.372.53-.392.921-.504 1.424-.028.418.364.865.728 1.34.98.726.392.753.868.502 1.596-.614 1.764.67 3.585 2.485 3.473.81-.028 1.2.224 1.396.98.14.532.307 1.064.503 1.596.25.616.055 1.008-.475 1.4-1.62 1.176-1.591 3.276.028 4.509.53.392.698.784.447 1.4-.168.42-.336.868-.42 1.316-.195.896-.641 1.4-1.535 1.092zm-18.51-6.105c0 3.585 2.987 6.581 6.533 6.553 3.49-.028 6.421-2.968 6.477-6.497.056-3.528-2.931-6.58-6.505-6.608-3.573 0-6.505 2.94-6.505 6.552z"/><path d="M38.333 18.986c.307.924-.335 1.232-1.145 1.54-.838.336-1.368.336-1.955-.504-1.032-1.484-2.345-1.456-3.406.084-.614.896-1.172.644-1.982.392-.865-.28-1.144-.672-1.06-1.596.167-1.652-.866-2.52-2.513-2.184-.754.168-1.368.196-1.815-.7-.391-.813-.642-1.373.14-2.157 1.172-1.176.949-2.576-.587-3.276-1.033-.476-.95-1.176-.837-2.016.111-.924.642-1.176 1.507-1.26 1.508-.112 2.234-1.4 1.62-2.829-.363-.84-.363-1.372.418-1.988.754-.616 1.313-.756 2.15-.168 1.284.896 2.652.42 3.043-1.12.251-.952.698-1.232 1.647-1.204.922.028 1.396.196 1.675 1.176.42 1.596 1.76 2.044 3.155 1.092.726-.504 1.229-.504 1.899.112.698.616 1.06 1.092.586 2.1-.698 1.485.056 2.689 1.703 2.857.81.084 1.284.364 1.368 1.232.084.84.28 1.54-.782 2.016-1.619.728-1.814 2.044-.558 3.36.726.756.475 1.288.084 2.073-.419.868-.977.924-1.787.756-1.675-.42-2.624.392-2.569 2.212zM33.53 15.12c2.568 0 4.606-2.016 4.606-4.536 0-2.492-2.122-4.62-4.606-4.592-2.43.028-4.495 2.072-4.551 4.508-.056 2.52 2.01 4.593 4.55 4.62z"/></g><defs><clipPath id="rclip0"><path fill="#fff" d="M0 0h44v38H0z"/></clipPath></defs></svg><svg fill="none" viewBox="0 0 36 28" id="restoration-8" xmlns="http://www.w3.org/2000/svg"><g clip-path="url(#sclip0)"><path d="M35.98 17.21c0 2.483-.02 4.985.02 7.467 0 .654-.218.859-.89.84-1.345-.037-2.71.019-4.055-.018-.613-.019-.95.168-1.167.728-.732 1.754-.752 1.754-2.69 1.754-3.56 0-7.121-.018-10.681.019-.772 0-1.286-.13-1.444-.896-.297-1.288-1.088-1.867-2.532-1.605-.317.056-.673-.038-.99.018-2.017.336-3.54-.336-4.707-1.922-.415-.56-.712-1.046-.712-1.755.04-4.61.04-9.203 0-13.813 0-.784.237-1.083 1.048-.971 1.563.224 2.908-.187 4.114-1.139.653-.522 1.425-.653 2.295-.634 2.314.037 4.609.074 6.923-.019 1.286-.056 2.393.224 3.383.97.85.654 1.8.897 2.927.84 1.543-.074 3.105 0 4.648-.037.712-.018.97.224.87.859-.138.859.238 1.101 1.128 1.083 2.492-.056 2.492-.019 2.492 2.352.02 1.96.02 3.92.02 5.88zM.02 15.363c0-2.016.02-4.032-.02-6.048-.02-.84.336-1.176 1.226-1.158 1.207.019 1.444.168 1.464 1.12.02 1.027.04 2.054 0 3.08-.02.579.218.822.811.728.97-.168 1.167.28 1.108 1.102-.06.896-.04 1.792 0 2.706.02.579-.198.822-.791.728-.97-.15-1.187.299-1.128 1.102.06.858.02 1.736 0 2.613-.02 1.083-.237 1.232-1.424 1.25-.95.02-1.286-.373-1.266-1.231.04-2.016.02-3.995.02-5.992zM17.308 4.07c-.752 0-1.523-.038-2.275.018-.653.037-.93-.205-.83-.803.177-1.026-.317-1.306-1.306-1.194-.376.037-.792.056-1.148-.131-.455-.261-.593-.653-.494-1.12.119-.579.554-.803 1.147-.821h5.44c1.444 0 2.888.018 4.351 0 .811-.02 1.405.224 1.405 1.064 0 .784-.574 1.045-1.345 1.026-.198 0-.396.019-.594 0-.93-.15-1.266.262-1.127 1.083.119.69-.178.952-.93.896-.791-.075-1.543-.019-2.294-.019z" fill="#DF5151"/><rect x="15" y="20" width="15" height="2" rx="1" fill="#F5EFE5"/></g><defs><clipPath id="sclip0"><path fill="#fff" d="M0 0h36v28H0z"/></clipPath></defs></svg><svg fill="none" viewBox="0 0 33 33" id="restoration-9" xmlns="http://www.w3.org/2000/svg"><g clip-path="url(#tclip0)" fill="#DF5151"><path d="M30.906 20.59c-.285-.24-.596-.473-.93-.697.4.712.609 1.464.609 2.236 0 2.137-1.554 4.091-4.377 5.502-2.609 1.305-6.057 2.023-9.708 2.023s-7.099-.718-9.708-2.023c-2.823-1.41-4.377-3.365-4.377-5.502 0-.772.21-1.524.609-2.236-.334.224-.645.456-.93.697C1.139 21.394 0 22.69 0 24.303c0 .944.385 1.877 1.144 2.775.795.94 1.951 1.792 3.438 2.536 3.167 1.583 7.4 2.455 11.918 2.455 4.518 0 8.751-.872 11.919-2.456 1.486-.743 2.642-1.596 3.437-2.535.76-.898 1.144-1.831 1.144-2.775 0-1.612-1.139-2.91-2.094-3.713z"/><path d="M16.5 25.306c-4.316 0-7.98-2.843-9.219-6.755-1.878 1.022-2.932 2.293-2.932 3.578 0 1.346 1.205 2.722 3.307 3.773 2.346 1.173 5.487 1.819 8.844 1.819 3.357 0 6.498-.646 8.844-1.819 2.102-1.051 3.307-2.426 3.307-3.773 0-1.285-1.054-2.556-2.932-3.578-1.239 3.912-4.903 6.755-9.219 6.755z"/><path d="M16.5 23.372c4.265 0 7.734-3.47 7.734-7.734a7.712 7.712 0 00-1.162-4.076L16.5.931 9.929 11.56a7.715 7.715 0 00-1.163 4.078c0 4.265 3.47 7.734 7.734 7.734z"/></g><defs><clipPath id="tclip0"><path fill="#fff" d="M0 0h33v33H0z"/></clipPath></defs></svg><svg fill="none" viewBox="0 0 50 50" id="setting" xmlns="http://www.w3.org/2000/svg"><path d="M50 6.912c-.38 1.37-1.277 2.401-2.263 3.366-3.001 2.963-5.958 5.97-8.983 8.932-.94.92-1.724 1.908-2.195 3.187-.56 1.526-1.21 1.616-2.352.494-.426-.427-.896-.808-1.255-1.28-.65-.83-1.142-.83-1.926-.044-3.943 4.017-7.953 7.989-11.94 11.983-1.904 1.908-3.763 3.86-5.712 5.678-.964.898-1.546 1.885-1.636 3.164-.09 1.145-.627 1.84-1.613 2.447-2.419 1.458-4.793 3.03-7.146 4.578-.604.404-.963.426-1.5-.135-1.457-1.548-1.501-1.504-.337-3.299 1.277-1.975 2.621-3.905 3.786-5.925.672-1.189 1.546-1.84 2.868-1.907 1.12-.045 1.926-.606 2.688-1.392a3395.308 3395.308 0 0117.943-17.863c.74-.74.785-1.19-.022-1.818-.582-.471-1.098-1.032-1.59-1.57-.673-.741-.56-1.572.358-1.84 1.792-.495 2.98-1.774 4.211-3.008 2.823-2.828 5.646-5.655 8.49-8.46 3.585-3.546 8.468-2.29 9.924 2.535.045.135.135.247.202.382v1.795zm-17.697 8.281c.38-.135.672-.426.963-.718 3.316-3.277 6.608-6.575 9.924-9.852.18-.18.38-.359.515-.583.202-.315.202-.651-.09-.92-.268-.27-.582-.337-.896-.068a6.382 6.382 0 00-.582.516l-9.901 9.852c-.202.202-.448.427-.56.673-.27.606.044.943.627 1.1zM47.11 6.867c.045-.247-.134-.471-.38-.56-.449-.203-.762.067-1.076.38-3.45 3.457-6.922 6.89-10.372 10.346-.358.36-.717.74-.201 1.212.492.449.873.157 1.232-.224 3.45-3.456 6.9-6.912 10.372-10.346.224-.202.47-.404.425-.808z" fill="#DF5151"/><path d="M42.16 50c-2.353-.516-3.988-1.998-5.511-3.77a1111.061 1111.061 0 00-12.612-14.385c-.605-.696-.515-1.055.09-1.639a253.878 253.878 0 006.025-6.014c.493-.516.807-.561 1.367-.067 5.22 4.578 10.484 9.088 15.68 13.689 3.092 2.738 3.518 6.665 1.166 9.583-1.143 1.436-2.71 2.154-4.436 2.58-.56.023-1.165.023-1.77.023zm.627-10.795c-2.084 0-3.719 1.616-3.719 3.636 0 1.997 1.703 3.703 3.696 3.703 2.061 0 3.652-1.616 3.674-3.703 0-2.087-1.546-3.636-3.651-3.636zM.717 7.383a634.38 634.38 0 005.175 5.386c.604.606 1.21 1.212 1.881 1.75.986.786 1.972.741 2.912-.134a73.66 73.66 0 003.249-3.232c1.053-1.144 1.03-2.11-.045-3.231A338.87 338.87 0 007.66 1.48C6.99.808 7.258.628 7.953.449 14.74-1.437 21.84 2.962 23.05 9.874c.336 1.885.067 3.815-.067 5.7-.045.786.09 1.37.761 1.818.516.36.941.875 1.457 1.234.784.539.828.943.112 1.639a179.676 179.676 0 00-5.489 5.453c-.493.516-.851.538-1.187-.067-1.367-2.334-3.338-3.008-5.981-2.626-1.86.27-3.808-.067-5.623-.673-4.01-1.347-6.743-5.095-6.99-9.493C-.09 10.3.068 8.887.718 7.383z" fill="#DF5151"/></svg><svg fill="none" viewBox="0 0 23 23" id="skype" xmlns="http://www.w3.org/2000/svg"><path d="M21.255 13.322c-.007.038-.012.077-.02.115l-.037-.22c.02.034.038.07.057.105.113-.615.172-1.244.172-1.873a10.285 10.285 0 00-3.026-7.304 10.292 10.292 0 00-7.303-3.025c-.658 0-1.316.062-1.956.185h-.005c.036.02.072.037.108.056l-.218-.034c.037-.006.073-.014.11-.021A6.122 6.122 0 006.269.589 6.076 6.076 0 001.945 2.38 6.11 6.11 0 00.923 9.67l.019-.113.037.217c-.02-.034-.036-.07-.056-.104a10.403 10.403 0 00-.155 1.78c0 1.395.273 2.747.812 4.021a10.282 10.282 0 002.213 3.283c.95.949 2.053 1.694 3.284 2.213 1.273.54 2.626.813 4.02.813.608 0 1.216-.055 1.81-.16l-.106-.058.221.039-.115.019a6.11 6.11 0 003.008.792 6.07 6.07 0 004.323-1.79 6.071 6.071 0 001.791-4.324 6.116 6.116 0 00-.774-2.975zm-10.116 4.453c-3.67 0-5.312-1.804-5.312-3.156 0-.694.512-1.18 1.218-1.18 1.57 0 1.164 2.255 4.094 2.255 1.5 0 2.328-.814 2.328-1.648 0-.5-.247-1.056-1.235-1.3l-3.264-.815c-2.629-.66-3.106-2.08-3.106-3.416 0-2.773 2.612-3.815 5.064-3.815 2.26 0 4.922 1.249 4.922 2.913 0 .713-.617 1.127-1.323 1.127-1.34 0-1.093-1.855-3.793-1.855-1.34 0-2.082.607-2.082 1.475 0 .866 1.058 1.143 1.977 1.352l2.416.537c2.647.59 3.317 2.134 3.317 3.59 0 2.253-1.73 3.936-5.221 3.936zm1.662 3.786l.106.058c.038-.007.077-.012.115-.02l-.22-.038zm8.435-8.124l.019-.115c-.02-.035-.036-.07-.057-.105l.038.22zM.942 9.557l-.019.112c.02.035.037.07.056.104l-.037-.217zM9.245 1.36c-.036-.02-.072-.036-.108-.055-.037.007-.073.015-.11.021l.218.034z" fill="currentColor"/></svg><svg fill="none" viewBox="0 0 24 25" id="viber" xmlns="http://www.w3.org/2000/svg"><path d="M20.586 2.96C20.003 2.423 17.64.704 12.371.68c0 0-6.21-.377-9.236 2.401C1.449 4.767.855 7.23.795 10.29c-.061 3.055-.142 8.784 5.38 10.338h.005l-.004 2.368s-.033.96.598 1.154c.762.235 1.214-.495 1.944-1.281.4-.433.951-1.064 1.37-1.549 3.776.316 6.68-.41 7.01-.518.763-.25 5.08-.8 5.781-6.53.725-5.894-.353-9.627-2.293-11.312zm.64 10.898c-.592 4.783-4.09 5.085-4.735 5.292-.273.09-2.825.725-6.036.513 0 0-2.391 2.886-3.135 3.634-.118.118-.254.165-.344.142-.127-.033-.165-.184-.16-.405 0-.32.019-3.94.019-3.94-.005 0-.005 0 0 0-4.675-1.295-4.402-6.173-4.35-8.724.052-2.552.532-4.647 1.958-6.055C7 2 12.277 2.343 12.277 2.343c4.454.019 6.586 1.36 7.08 1.808 1.644 1.412 2.482 4.778 1.87 9.707z" fill="currentColor"/><path d="M14.542 10.46a.299.299 0 01-.297-.283c-.052-1.012-.527-1.507-1.497-1.559a.3.3 0 01.033-.597c1.28.07 1.996.805 2.062 2.123a.293.293 0 01-.283.31c-.009.005-.014.005-.018.005z" fill="currentColor"/><path d="M16.067 10.968h-.005a.3.3 0 01-.292-.306c.024-1.017-.268-1.841-.89-2.519-.616-.678-1.468-1.045-2.594-1.125a.296.296 0 01-.273-.32.296.296 0 01.32-.273c1.272.094 2.274.536 2.99 1.318.72.786 1.069 1.77 1.045 2.933a.302.302 0 01-.301.292z" fill="currentColor"/><path d="M17.63 11.58a.295.295 0 01-.297-.297c-.014-1.822-.536-3.21-1.6-4.251-1.05-1.027-2.383-1.55-3.95-1.563a.3.3 0 010-.598c1.728.014 3.196.593 4.36 1.732 1.167 1.14 1.765 2.712 1.784 4.67a.295.295 0 01-.297.306c.005 0 .005 0 0 0zm-4.811 2.565s.418.038.644-.24l.438-.55c.212-.274.725-.448 1.224-.17.278.155.782.466 1.093.697.334.245 1.012.81 1.016.814.325.273.4.673.18 1.102v.01c-.227.4-.533.776-.914 1.124-.005 0-.005.005-.01.005-.315.264-.625.414-.927.447-.038.01-.08.01-.136.01-.132 0-.264-.02-.396-.061l-.01-.015c-.47-.131-1.252-.461-2.55-1.181a15.156 15.156 0 01-2.148-1.417 10.99 10.99 0 01-.965-.857l-.033-.033-.033-.033-.033-.033-.033-.033c-.324-.33-.607-.65-.856-.965-.476-.593-.951-1.3-1.417-2.147-.72-1.304-1.05-2.085-1.182-2.551l-.014-.01a1.282 1.282 0 01-.061-.395c0-.057 0-.1.009-.137.038-.306.188-.612.447-.927 0-.005.005-.005.005-.01a4.487 4.487 0 011.125-.913h.01c.423-.221.823-.146 1.101.179 0 0 .57.682.815 1.017.23.315.541.814.696 1.092.278.499.104 1.012-.17 1.224l-.55.438c-.278.226-.24.645-.24.645s.814 3.097 3.874 3.874z" fill="currentColor"/></svg><svg fill="none" viewBox="0 0 16 16" id="wallet" xmlns="http://www.w3.org/2000/svg"><path fill-rule="evenodd" clip-rule="evenodd" d="M0 3.36c0-.76.557-1.414 1.326-1.554l9.75-1.778C12.075-.155 13 .592 13 1.58V3H3a1 1 0 000 2h11a2 2 0 012 2v7a2 2 0 01-2 2H2a2 2 0 01-2-2V3.36zm14 7.14a1.5 1.5 0 11-3 0 1.5 1.5 0 013 0z" fill="#00002E" fill-opacity=".28"/></svg><svg viewBox="0 0 512 512" id="zoom" xmlns="http://www.w3.org/2000/svg"><path d="M289.8 200.2h-49.3v-49.3c0-11.3-9.1-20.4-20.4-20.4-11.3 0-20.4 9.1-20.4 20.4v49.3h-49.3c-11.3 0-20.4 9.1-20.4 20.4 0 11.3 9.1 20.4 20.4 20.4h49.3v49.3c0 11.3 9.1 20.4 20.4 20.4 11.3 0 20.4-9.1 20.4-20.4V241h49.3c11.3 0 20.4-9.1 20.4-20.4 0-11.3-9.2-20.4-20.4-20.4z" fill="currentColor"/><path d="M220.2 388.7C127.3 388.7 52 313.5 52 220.6S127.3 52.5 220.2 52.5s168.1 75.3 168.1 168.1S313 388.7 220.2 388.7zm274.8 78L381.7 353.4c29.7-36.1 47.6-82.4 47.6-132.8 0-115.5-93.6-209.2-209.2-209.2S11 105.1 11 220.6s93.6 209.2 209.2 209.2c50.4 0 96.6-17.8 132.7-47.5l113.3 113.3c5.2 5.3 21.1 7.9 28.9 0 7.9-8 7.9-20.9-.1-28.9z" fill="currentColor"/></svg></svg>