<svg width="24" height="25" fill="none" xmlns="http://www.w3.org/2000/svg"><path d="M20.586 2.96C20.003 2.423 17.64.704 12.371.68c0 0-6.21-.377-9.236 2.401C1.449 4.767.855 7.23.795 10.29c-.061 3.055-.142 8.784 5.38 10.338h.005l-.004 2.368s-.033.96.598 1.154c.762.235 1.214-.495 1.944-1.281.4-.433.951-1.064 1.37-1.549 3.776.316 6.68-.41 7.01-.518.763-.25 5.08-.8 5.781-6.53.725-5.894-.353-9.627-2.293-11.312zm.64 10.898c-.592 4.783-4.09 5.085-4.735 5.292-.273.09-2.825.725-6.036.513 0 0-2.391 2.886-3.135 3.634-.118.118-.254.165-.344.142-.127-.033-.165-.184-.16-.405 0-.32.019-3.94.019-3.94-.005 0-.005 0 0 0-4.675-1.295-4.402-6.173-4.35-8.724.052-2.552.532-4.647 1.958-6.055C7 2 12.277 2.343 12.277 2.343c4.454.019 6.586 1.36 7.08 1.808 1.644 1.412 2.482 4.778 1.87 9.707z" fill="currentColor"/><path d="M14.542 10.46a.299.299 0 01-.297-.283c-.052-1.012-.527-1.507-1.497-1.559a.3.3 0 01.033-.597c1.28.07 1.996.805 2.062 2.123a.293.293 0 01-.283.31c-.009.005-.014.005-.018.005z" fill="currentColor"/><path d="M16.067 10.968h-.005a.3.3 0 01-.292-.306c.024-1.017-.268-1.841-.89-2.519-.616-.678-1.468-1.045-2.594-1.125a.296.296 0 01-.273-.32.296.296 0 01.32-.273c1.272.094 2.274.536 2.99 1.318.72.786 1.069 1.77 1.045 2.933a.302.302 0 01-.301.292z" fill="currentColor"/><path d="M17.63 11.58a.295.295 0 01-.297-.297c-.014-1.822-.536-3.21-1.6-4.251-1.05-1.027-2.383-1.55-3.95-1.563a.3.3 0 010-.598c1.728.014 3.196.593 4.36 1.732 1.167 1.14 1.765 2.712 1.784 4.67a.295.295 0 01-.297.306c.005 0 .005 0 0 0zm-4.811 2.565s.418.038.644-.24l.438-.55c.212-.274.725-.448 1.224-.17.278.155.782.466 1.093.697.334.245 1.012.81 1.016.814.325.273.4.673.18 1.102v.01c-.227.4-.533.776-.914 1.124-.005 0-.005.005-.01.005-.315.264-.625.414-.927.447-.038.01-.08.01-.136.01-.132 0-.264-.02-.396-.061l-.01-.015c-.47-.131-1.252-.461-2.55-1.181a15.156 15.156 0 01-2.148-1.417 10.99 10.99 0 01-.965-.857l-.033-.033-.033-.033-.033-.033-.033-.033c-.324-.33-.607-.65-.856-.965-.476-.593-.951-1.3-1.417-2.147-.72-1.304-1.05-2.085-1.182-2.551l-.014-.01a1.282 1.282 0 01-.061-.395c0-.057 0-.1.009-.137.038-.306.188-.612.447-.927 0-.005.005-.005.005-.01a4.487 4.487 0 011.125-.913h.01c.423-.221.823-.146 1.101.179 0 0 .57.682.815 1.017.23.315.541.814.696 1.092.278.499.104 1.012-.17 1.224l-.55.438c-.278.226-.24.645-.24.645s.814 3.097 3.874 3.874z" fill="currentColor"/></svg>